<svg width="18" height="17" viewBox="0 0 18 17" fill="none" xmlns="http://www.w3.org/2000/svg">
<g clip-path="url(#clip0_4_268)">
<path d="M10.8214 4.25V3.03571C10.8214 2.71366 10.6935 2.40481 10.4658 2.17708C10.238 1.94936 9.9292 1.82143 9.60714 1.82143H8.39286" stroke="black" stroke-linecap="round" stroke-linejoin="round"/>
<path d="M5.35714 12.75H2.32143C1.99938 12.75 1.69052 12.622 1.4628 12.3943C1.23508 12.1667 1.10714 11.8578 1.10714 11.5357V3.03571C1.10714 2.71366 1.23508 2.40481 1.4628 2.17708C1.69052 1.94936 1.99938 1.82143 2.32143 1.82143H3.53571" stroke="black" stroke-linecap="round" stroke-linejoin="round"/>
<path d="M15.6786 6.67857H9.60714C8.93652 6.67857 8.39286 7.22223 8.39286 7.89286V15.1786C8.39286 15.8492 8.93652 16.3929 9.60714 16.3929H15.6786C16.3492 16.3929 16.8929 15.8492 16.8929 15.1786V7.89286C16.8929 7.22223 16.3492 6.67857 15.6786 6.67857Z" stroke="black" stroke-linecap="round" stroke-linejoin="round"/>
<path d="M8.69643 0.607147H3.23214L3.73 2.57429C3.76033 2.70595 3.83456 2.82338 3.9405 2.90724C4.04643 2.99109 4.17774 3.03641 4.31286 3.03572H7.61571C7.75083 3.03641 7.88214 2.99109 7.98807 2.90724C8.09401 2.82338 8.16824 2.70595 8.19857 2.57429L8.69643 0.607147Z" stroke="black" stroke-linecap="round" stroke-linejoin="round"/>
<path d="M10.8214 10.3214H14.4643" stroke="black" stroke-linecap="round" stroke-linejoin="round"/>
<path d="M10.8214 12.75H14.4643" stroke="black" stroke-linecap="round" stroke-linejoin="round"/>
</g>
<defs>
<clipPath id="clip0_4_268">
<rect width="17" height="17" fill="white" transform="translate(0.5)"/>
</clipPath>
</defs>
</svg>
