<svg width="27" height="27" viewBox="0 0 27 27" fill="none" xmlns="http://www.w3.org/2000/svg">
<g clip-path="url(#clip0_3_124)">
<path d="M9.64286 2.89285H21.2143C21.8474 2.89285 22.4744 3.01755 23.0594 3.25986C23.6443 3.50217 24.1758 3.85731 24.6236 4.30501C25.0712 4.75273 25.4265 5.28424 25.6687 5.8692C25.9109 6.45417 26.0357 7.08113 26.0357 7.71428C26.0373 8.46305 25.8637 9.20179 25.5287 9.8715C25.1939 10.5412 24.7071 11.1234 24.1071 11.5714V22.1786C24.1071 22.69 23.9039 23.1807 23.5423 23.5423C23.1807 23.9039 22.69 24.1071 22.1786 24.1071H8.67857" fill="#F0D692"/>
<path d="M9.64286 2.89285H21.2143C21.8474 2.89285 22.4744 3.01755 23.0594 3.25986C23.6443 3.50217 24.1758 3.85731 24.6236 4.30501C25.0712 4.75273 25.4265 5.28424 25.6687 5.8692C25.9109 6.45417 26.0357 7.08113 26.0357 7.71428C26.0373 8.46305 25.8637 9.20179 25.5287 9.8715C25.1939 10.5412 24.7071 11.1234 24.1071 11.5714V22.1786C24.1071 22.69 23.9039 23.1807 23.5423 23.5423C23.1807 23.9039 22.69 24.1071 22.1786 24.1071H8.67857" stroke="black" stroke-width="2" stroke-linecap="round" stroke-linejoin="round"/>
<path d="M20.25 7.71428C20.25 7.08113 20.1252 6.45417 19.883 5.8692C19.6408 5.28424 19.2855 4.75273 18.8378 4.30501C18.3901 3.85731 17.8586 3.50217 17.2737 3.25986C16.6887 3.01755 16.0617 2.89285 15.4286 2.89285H5.78572C4.77377 2.89285 3.7875 3.21124 2.96657 3.80293C2.14565 4.39463 1.53171 5.22961 1.21171 6.18961C0.891705 7.14961 0.881871 8.18597 1.1836 9.15188C1.48532 10.1178 2.08332 10.9643 2.89286 11.5714V22.1786C2.89286 22.69 3.09605 23.1807 3.45772 23.5423C3.8194 23.9039 4.30993 24.1071 4.82143 24.1071H16.3929C16.9044 24.1071 17.3949 23.9039 17.7566 23.5423C18.1182 23.1807 18.3214 22.69 18.3214 22.1786V11.5714C18.9214 11.1234 19.4082 10.5412 19.743 9.8715C20.078 9.20179 20.2515 8.46305 20.25 7.71428Z" fill="#F0D692" stroke="black" stroke-width="2" stroke-linecap="round" stroke-linejoin="round"/>
<path d="M24.1071 11.5714H18.3214H24.1071Z" fill="#F0D692"/>
<path d="M24.1071 11.5714H18.3214" stroke="black" stroke-width="2" stroke-linecap="round" stroke-linejoin="round"/>
</g>
<defs>
<clipPath id="clip0_3_124">
<rect width="27" height="27" fill="white"/>
</clipPath>
</defs>
</svg>
