<svg width="65" height="14" viewBox="0 0 65 14" fill="none" xmlns="http://www.w3.org/2000/svg">
<path d="M11.5255 4.93613L7.955 4.34862L6.3589 0.685024C6.31531 0.584717 6.24359 0.503516 6.15499 0.454159C5.93281 0.329969 5.6628 0.433461 5.55171 0.685024L3.95561 4.34862L0.385133 4.93613C0.286695 4.95205 0.196694 5.00459 0.127788 5.0842C0.0444839 5.18114 -0.00142046 5.31157 0.000161651 5.44681C0.00174376 5.58205 0.0506829 5.71105 0.136225 5.80546L2.71951 8.65704L2.1092 12.6837C2.09489 12.7773 2.10404 12.8737 2.13563 12.9617C2.16721 13.0498 2.21996 13.1261 2.28789 13.182C2.35582 13.2378 2.43622 13.271 2.51997 13.2778C2.60371 13.2845 2.68746 13.2646 2.7617 13.2202L5.95531 11.3192L9.14891 13.2202C9.2361 13.2728 9.33735 13.2903 9.43438 13.2712C9.67907 13.2234 9.8436 12.9607 9.80141 12.6837L9.1911 8.65704L11.7744 5.80546C11.8447 5.72744 11.8911 5.62554 11.9052 5.51409C11.9431 5.23546 11.7716 4.97753 11.5255 4.93613Z" fill="#F3B004"/>
<path d="M24.352 4.93613L20.7815 4.34862L19.1854 0.685024C19.1418 0.584717 19.0701 0.503516 18.9815 0.454159C18.7593 0.329969 18.4893 0.433461 18.3782 0.685024L16.7821 4.34862L13.2117 4.93613C13.1132 4.95205 13.0232 5.00459 12.9543 5.0842C12.871 5.18114 12.8251 5.31157 12.8267 5.44681C12.8283 5.58205 12.8772 5.71105 12.9628 5.80546L15.5461 8.65704L14.9357 12.6837C14.9214 12.7773 14.9306 12.8737 14.9622 12.9617C14.9937 13.0498 15.0465 13.1261 15.1144 13.182C15.1824 13.2378 15.2628 13.271 15.3465 13.2778C15.4303 13.2845 15.514 13.2646 15.5882 13.2202L18.7818 11.3192L21.9754 13.2202C22.0626 13.2728 22.1639 13.2903 22.2609 13.2712C22.5056 13.2234 22.6701 12.9607 22.6279 12.6837L22.0176 8.65704L24.6009 5.80546C24.6712 5.72744 24.7176 5.62554 24.7317 5.51409C24.7697 5.23546 24.5981 4.97753 24.352 4.93613Z" fill="#F3B004"/>
<path d="M37.208 4.93613L33.9122 4.34862L32.4389 0.685024C32.3986 0.584717 32.3324 0.503516 32.2506 0.454159C32.0455 0.329969 31.7963 0.433461 31.6938 0.685024L30.2204 4.34862L26.9246 4.93613C26.8337 4.95205 26.7507 5.00459 26.6871 5.0842C26.6102 5.18114 26.5678 5.31157 26.5693 5.44681C26.5707 5.58205 26.6159 5.71105 26.6948 5.80546L29.0794 8.65704L28.5161 12.6837C28.5028 12.7773 28.5113 12.8737 28.5404 12.9617C28.5696 13.0498 28.6183 13.1261 28.681 13.182C28.7437 13.2378 28.8179 13.271 28.8952 13.2778C28.9725 13.2845 29.0498 13.2646 29.1184 13.2202L32.0663 11.3192L35.0142 13.2202C35.0947 13.2728 35.1882 13.2903 35.2778 13.2712C35.5036 13.2234 35.6555 12.9607 35.6166 12.6837L35.0532 8.65704L37.4378 5.80546C37.5027 5.72744 37.5455 5.62554 37.5585 5.51409C37.5935 5.23546 37.4352 4.97753 37.208 4.93613Z" fill="#F3B004"/>
<path d="M47.1214 4.44847L47.1758 4.57321L47.31 4.5953L50.8796 5.18267C50.8798 5.18269 50.8799 5.1827 50.88 5.18272C50.97 5.1981 51.0761 5.31148 51.0531 5.48033L51.0528 5.48279C51.0448 5.54562 51.0191 5.59935 50.9845 5.63783C50.9845 5.63792 50.9844 5.638 50.9843 5.63809L48.4014 8.4892L48.3218 8.57716L48.3395 8.69451L48.9499 12.7211L48.9499 12.7213C48.9758 12.8915 48.8712 13.0084 48.7821 13.0258L48.7817 13.0259C48.746 13.0329 48.708 13.0268 48.6736 13.0061L48.6724 13.0054L45.4788 11.1043L45.3509 11.0282L45.2231 11.1043L42.0295 13.0054L42.0291 13.0056C41.9981 13.0242 41.966 13.031 41.9357 13.0286C41.9053 13.0261 41.8728 13.0139 41.8423 12.9889C41.8115 12.9635 41.7839 12.9258 41.7666 12.8773C41.7492 12.8289 41.7438 12.7746 41.752 12.7214L41.752 12.7211L42.3623 8.69451L42.3801 8.57716L42.3004 8.4892L39.7171 5.63761L39.7171 5.6376C39.6752 5.59137 39.6467 5.52219 39.6458 5.44388C39.6449 5.36575 39.6717 5.29545 39.7127 5.24746C39.7467 5.20837 39.7854 5.18863 39.8207 5.18292L39.8214 5.18281L43.3918 4.5953L43.5261 4.57321L43.5804 4.44847L45.176 0.786018C45.1761 0.785857 45.1762 0.785695 45.1762 0.785533C45.2367 0.649311 45.3534 0.630311 45.4286 0.672384L45.429 0.672553C45.4658 0.693063 45.5017 0.730484 45.5252 0.784672L45.5253 0.784876L47.1214 4.44847Z" fill="white" stroke="#969696" stroke-width="0.5"/>
<path d="M59.9479 4.44847L60.0022 4.57321L60.1365 4.5953L63.7061 5.18267C63.7062 5.18269 63.7063 5.1827 63.7064 5.18272C63.7964 5.1981 63.9025 5.31148 63.8795 5.48033L63.8792 5.48279C63.8713 5.54562 63.8455 5.59935 63.811 5.63783C63.8109 5.63792 63.8108 5.638 63.8107 5.63809L61.2279 8.4892L61.1482 8.57716L61.166 8.69451L61.7763 12.7211L61.7763 12.7213C61.8022 12.8915 61.6976 13.0084 61.6085 13.0258L61.6081 13.0259C61.5725 13.0329 61.5344 13.0268 61.5 13.0061L61.4988 13.0054L58.3052 11.1043L58.1774 11.0282L58.0495 11.1043L54.8559 13.0054L54.8555 13.0056C54.8245 13.0242 54.7924 13.031 54.7621 13.0286C54.7317 13.0261 54.6992 13.0139 54.6687 12.9889C54.6379 12.9635 54.6104 12.9258 54.593 12.8773C54.5756 12.8289 54.5703 12.7746 54.5784 12.7214L54.5784 12.7211L55.1887 8.69451L55.2065 8.57716L55.1268 8.4892L52.5435 5.63761L52.5435 5.6376C52.5016 5.59137 52.4731 5.52219 52.4722 5.44388C52.4713 5.36575 52.4981 5.29545 52.5392 5.24746C52.5731 5.20837 52.6118 5.18863 52.6471 5.18292L52.6478 5.18281L56.2182 4.5953L56.3525 4.57321L56.4069 4.44847L58.0024 0.786018C58.0025 0.785857 58.0026 0.785695 58.0027 0.785533C58.0631 0.649311 58.1798 0.630311 58.2551 0.672384L58.2554 0.672553C58.2922 0.693063 58.3281 0.730484 58.3517 0.784672L58.3518 0.784876L59.9479 4.44847Z" fill="white" stroke="#969696" stroke-width="0.5"/>
</svg>
