<svg width="64" height="14" viewBox="0 0 64 14" fill="none" xmlns="http://www.w3.org/2000/svg">
<path d="M11.3625 4.93613L7.8425 4.34862L6.26895 0.685024C6.22597 0.584717 6.15527 0.503516 6.06792 0.454159C5.84888 0.329969 5.58269 0.433461 5.47316 0.685024L3.89961 4.34862L0.379572 4.93613C0.282524 4.95205 0.193795 5.00459 0.125862 5.0842C0.0437351 5.18114 -0.00152074 5.31157 3.90212e-05 5.44681C0.00159878 5.58205 0.0498466 5.71105 0.134181 5.80546L2.68098 8.65704L2.07928 12.6837C2.06517 12.7773 2.0742 12.8737 2.10534 12.9617C2.13647 13.0498 2.18848 13.1261 2.25545 13.182C2.32242 13.2378 2.40168 13.271 2.48425 13.2778C2.56681 13.2845 2.64937 13.2646 2.72257 13.2202L5.87106 11.3192L9.01955 13.2202C9.1055 13.2728 9.20532 13.2903 9.30098 13.2712C9.54221 13.2234 9.70442 12.9607 9.66283 12.6837L9.06114 8.65704L11.6079 5.80546C11.6773 5.72744 11.723 5.62554 11.7369 5.51409C11.7743 5.23546 11.6052 4.97753 11.3625 4.93613Z" fill="#F3B004"/>
<path d="M24.0079 4.93613L20.4878 4.34862L18.9143 0.685024C18.8713 0.584717 18.8006 0.503516 18.7132 0.454159C18.4942 0.329969 18.228 0.433461 18.1185 0.685024L16.5449 4.34862L13.0249 4.93613C12.9278 4.95205 12.8391 5.00459 12.7712 5.0842C12.6891 5.18114 12.6438 5.31157 12.6454 5.44681C12.6469 5.58205 12.6952 5.71105 12.7795 5.80546L15.3263 8.65704L14.7246 12.6837C14.7105 12.7773 14.7195 12.8737 14.7507 12.9617C14.7818 13.0498 14.8338 13.1261 14.9008 13.182C14.9677 13.2378 15.047 13.271 15.1296 13.2778C15.2121 13.2845 15.2947 13.2646 15.3679 13.2202L18.5164 11.3192L21.6649 13.2202C21.7508 13.2728 21.8506 13.2903 21.9463 13.2712C22.1875 13.2234 22.3497 12.9607 22.3082 12.6837L21.7065 8.65704L24.2533 5.80546C24.3226 5.72744 24.3683 5.62554 24.3822 5.51409C24.4196 5.23546 24.2505 4.97753 24.0079 4.93613Z" fill="#F3B004"/>
<path d="M36.6823 4.93613L33.433 4.34862L31.9805 0.685024C31.9408 0.584717 31.8756 0.503516 31.7949 0.454159C31.5927 0.329969 31.347 0.433461 31.2459 0.685024L29.7934 4.34862L26.5442 4.93613C26.4546 4.95205 26.3727 5.00459 26.31 5.0842C26.2342 5.18114 26.1924 5.31157 26.1938 5.44681C26.1953 5.58205 26.2398 5.71105 26.3176 5.80546L28.6685 8.65704L28.1131 12.6837C28.1001 12.7773 28.1084 12.8737 28.1372 12.9617C28.1659 13.0498 28.2139 13.1261 28.2757 13.182C28.3376 13.2378 28.4107 13.271 28.4869 13.2778C28.5632 13.2845 28.6394 13.2646 28.7069 13.2202L31.6132 11.3192L34.5195 13.2202C34.5989 13.2728 34.691 13.2903 34.7793 13.2712C35.002 13.2234 35.1517 12.9607 35.1133 12.6837L34.5579 8.65704L36.9088 5.80546C36.9728 5.72744 37.015 5.62554 37.0278 5.51409C37.0624 5.23546 36.9062 4.97753 36.6823 4.93613Z" fill="#F3B004"/>
<path d="M46.4519 4.44728L46.5058 4.57273L46.6405 4.59521L50.1596 5.18257C50.1597 5.18258 50.1598 5.1826 50.1599 5.18262C50.2442 5.19721 50.3513 5.30855 50.3282 5.4808L50.3279 5.48323C50.32 5.54681 50.2943 5.60082 50.2604 5.63917C50.2603 5.63925 50.2602 5.63933 50.2602 5.63941L47.7138 8.49051L47.6357 8.57799L47.653 8.69399L48.2547 12.7206L48.2547 12.7208C48.2808 12.8943 48.1752 13.0094 48.0915 13.0259L48.0911 13.026C48.0578 13.0327 48.0219 13.027 47.989 13.0069L47.9879 13.0062L44.8394 11.1051L44.7102 11.0271L44.5809 11.1051L41.4325 13.0062L41.4321 13.0064C41.4023 13.0245 41.372 13.0309 41.3438 13.0286C41.3154 13.0263 41.2843 13.0147 41.2547 12.99C41.2247 12.9649 41.1974 12.9273 41.1802 12.8784C41.1629 12.8295 41.1575 12.7746 41.1656 12.7209L41.1657 12.7206L41.7673 8.69399L41.7847 8.57799L41.7065 8.49051L39.1598 5.63893L39.1597 5.63891C39.1186 5.59282 39.09 5.52321 39.0891 5.44392C39.0882 5.36483 39.115 5.29406 39.1554 5.24615C39.1888 5.20717 39.2261 5.18825 39.2592 5.18283L39.2598 5.18272L42.7799 4.59521L42.9145 4.57273L42.9684 4.44728L44.5415 0.78482C44.5416 0.784643 44.5416 0.784465 44.5417 0.784288C44.6018 0.646827 44.7144 0.632305 44.7837 0.671638L44.784 0.671811C44.8194 0.691807 44.8549 0.728848 44.8783 0.783483L44.8784 0.783686L46.4519 4.44728Z" fill="white" stroke="#969696" stroke-width="0.5"/>
<path d="M59.0972 4.44728L59.1511 4.57273L59.2858 4.59521L62.8049 5.18257C62.805 5.18258 62.8051 5.1826 62.8052 5.18262C62.8896 5.19721 62.9967 5.30855 62.9735 5.4808L62.9732 5.48323C62.9653 5.54681 62.9397 5.60082 62.9057 5.63917C62.9056 5.63925 62.9056 5.63933 62.9055 5.63941L60.3591 8.49051L60.281 8.57799L60.2983 8.69399L60.9 12.7206L60.9 12.7208C60.9261 12.8943 60.8205 13.0094 60.7369 13.0259L60.7365 13.026C60.7031 13.0327 60.6673 13.027 60.6344 13.0069L60.6332 13.0062L57.4847 11.1051L57.3555 11.0271L57.2263 11.1051L54.0778 13.0062L54.0774 13.0064C54.0476 13.0245 54.0173 13.0309 53.9891 13.0286C53.9607 13.0263 53.9296 13.0147 53.9 12.99C53.87 12.9649 53.8427 12.9273 53.8255 12.8784C53.8082 12.8295 53.8028 12.7746 53.8109 12.7209L53.811 12.7206L54.4127 8.69399L54.43 8.57799L54.3519 8.49051L51.8051 5.63893L51.8051 5.63891C51.7639 5.59282 51.7354 5.52321 51.7345 5.44392C51.7335 5.36483 51.7603 5.29406 51.8008 5.24615C51.8341 5.20717 51.8715 5.18825 51.9045 5.18283L51.9052 5.18272L55.4252 4.59521L55.5599 4.57273L55.6138 4.44728L57.1868 0.78482C57.1869 0.784643 57.187 0.784465 57.187 0.784288C57.2472 0.646827 57.3597 0.632305 57.4291 0.671638L57.4294 0.671811C57.4648 0.691807 57.5002 0.728848 57.5236 0.783483L57.5237 0.783686L59.0972 4.44728Z" fill="white" stroke="#969696" stroke-width="0.5"/>
</svg>
