<svg width="63" height="13" viewBox="0 0 63 13" fill="none" xmlns="http://www.w3.org/2000/svg">
<path d="M11.209 4.63388L7.73652 4.04637L6.18424 0.382778C6.14184 0.282471 6.07209 0.20127 5.98593 0.151913C5.76984 0.0277233 5.50725 0.131215 5.3992 0.382778L3.84691 4.04637L0.374442 4.63388C0.278706 4.64981 0.191177 4.70235 0.124162 4.78196C0.0431441 4.8789 -0.00150019 5.00932 3.84939e-05 5.14456C0.00157718 5.2798 0.049173 5.4088 0.132367 5.50321L2.64475 8.3548L2.05119 12.3814C2.03727 12.4751 2.04617 12.5714 2.07689 12.6595C2.1076 12.7476 2.1589 12.8239 2.22497 12.8797C2.29104 12.9356 2.36923 12.9688 2.45068 12.9755C2.53212 12.9823 2.61357 12.9624 2.68578 12.918L5.79172 11.0169L8.89766 12.918C8.98245 12.9705 9.08093 12.988 9.17529 12.9689C9.41327 12.9212 9.57328 12.6584 9.53225 12.3814L8.93869 8.3548L11.4511 5.50321C11.5195 5.4252 11.5646 5.3233 11.5783 5.21184C11.6152 4.93321 11.4483 4.67528 11.209 4.63388Z" fill="#F3B004"/>
<path d="M23.6834 4.63388L20.2109 4.04637L18.6586 0.382778C18.6162 0.282471 18.5465 0.20127 18.4603 0.151913C18.2442 0.0277233 17.9816 0.131215 17.8736 0.382778L16.3213 4.04637L12.8488 4.63388C12.7531 4.64981 12.6655 4.70235 12.5985 4.78196C12.5175 4.8789 12.4729 5.00932 12.4744 5.14456C12.4759 5.2798 12.5235 5.4088 12.6067 5.50321L15.1191 8.3548L14.5256 12.3814C14.5116 12.4751 14.5205 12.5714 14.5513 12.6595C14.582 12.7476 14.6333 12.8239 14.6993 12.8797C14.7654 12.9356 14.8436 12.9688 14.925 12.9755C15.0065 12.9823 15.0879 12.9624 15.1601 12.918L18.2661 11.0169L21.372 12.918C21.4568 12.9705 21.5553 12.988 21.6497 12.9689C21.8876 12.9212 22.0476 12.6584 22.0066 12.3814L21.4131 8.3548L23.9254 5.50321C23.9938 5.4252 24.0389 5.3233 24.0526 5.21184C24.0896 4.93321 23.9227 4.67528 23.6834 4.63388Z" fill="#F3B004"/>
<path d="M36.1866 4.63388L32.9812 4.04637L31.5484 0.382778C31.5092 0.282471 31.4448 0.20127 31.3653 0.151913C31.1658 0.0277233 30.9235 0.131215 30.8237 0.382778L29.3908 4.04637L26.1855 4.63388C26.0971 4.64981 26.0163 4.70235 25.9545 4.78196C25.8797 4.8789 25.8385 5.00932 25.8399 5.14456C25.8413 5.2798 25.8852 5.4088 25.962 5.50321L28.2811 8.3548L27.7332 12.3814C27.7204 12.4751 27.7286 12.5714 27.757 12.6595C27.7853 12.7476 27.8327 12.8239 27.8937 12.8797C27.9546 12.9356 28.0268 12.9688 28.102 12.9755C28.1772 12.9823 28.2524 12.9624 28.319 12.918L31.186 11.0169L34.0531 12.918C34.1313 12.9705 34.2222 12.988 34.3093 12.9689C34.529 12.9212 34.6767 12.6584 34.6388 12.3814L34.0909 8.3548L36.4101 5.50321C36.4732 5.4252 36.5148 5.3233 36.5275 5.21184C36.5616 4.93321 36.4075 4.67528 36.1866 4.63388Z" fill="#F3B004"/>
<path d="M47.212 12.918C47.2968 12.9705 47.3953 12.988 47.4896 12.9689C47.7276 12.9212 47.8876 12.6584 47.8466 12.3814L47.212 12.918ZM47.212 12.918L44.106 11.0169L41.0001 12.918M47.212 12.918H41.0001M41.0001 12.918C40.9279 12.9624 40.8465 12.9823 40.765 12.9755C40.6836 12.9688 40.6054 12.9356 40.5393 12.8797M41.0001 12.918L40.5393 12.8797M40.5393 12.8797C40.4732 12.8239 40.4219 12.7476 40.3912 12.6595C40.3605 12.5714 40.3516 12.4751 40.3655 12.3814L40.9591 8.3548L38.4467 5.50321C38.3635 5.4088 38.3159 5.2798 38.3144 5.14456C38.3128 5.00932 38.3575 4.8789 38.4385 4.78196M40.5393 12.8797L49.5774 5.33843L47.0654 8.18953L46.9888 8.27654L47.0057 8.39125L47.5993 12.4179L47.5993 12.418C47.6254 12.5947 47.519 12.708 47.4404 12.7238L47.44 12.7239C47.4089 12.7302 47.3752 12.725 47.3437 12.7055L47.3425 12.7047L44.2366 10.8037L44.106 10.7238L43.9755 10.8037L40.8696 12.7047L40.8692 12.705C40.8406 12.7226 40.812 12.7286 40.7857 12.7264C40.7592 12.7242 40.7295 12.7132 40.7007 12.6888C40.6715 12.6641 40.6445 12.6264 40.6273 12.5772C40.6101 12.5279 40.6047 12.4724 40.6128 12.4182L40.6128 12.4179L41.2064 8.39125L41.2233 8.27654L41.1467 8.18953L38.6343 5.33794L38.6343 5.33793C38.5937 5.29195 38.5653 5.22193 38.5644 5.14172C38.5634 5.06171 38.5902 4.99047 38.63 4.94263M38.4385 4.78196L38.6297 4.94296C38.6298 4.94285 38.6299 4.94274 38.63 4.94263M38.4385 4.78196L38.6303 4.94227C38.6302 4.94239 38.6301 4.94251 38.63 4.94263M38.4385 4.78196C38.5055 4.70235 38.593 4.64981 38.6888 4.63388L42.1612 4.04637L43.7135 0.382778C43.8216 0.131215 44.0842 0.0277233 44.3003 0.151913L49.5776 5.33824C49.611 5.30001 49.6366 5.24572 49.6445 5.18139L49.6447 5.179C49.668 5.00358 49.5601 4.8942 49.481 4.88028C49.4809 4.88026 49.4808 4.88025 49.4807 4.88023L46.0091 4.29287L45.8741 4.27002L45.8207 4.14391L44.2684 0.480311L44.2683 0.480109C44.245 0.425037 44.21 0.388349 44.176 0.368842L44.1757 0.368666C44.1119 0.332019 44.0033 0.342128 43.9435 0.480952C43.9434 0.481114 43.9433 0.481275 43.9432 0.481437L42.3914 4.14391L42.338 4.27002L42.203 4.29287L38.7305 4.88038L38.7298 4.8805C38.6989 4.88563 38.6629 4.90375 38.63 4.94263" fill="white" stroke="#969696" stroke-width="0.5"/>
<path d="M59.6864 12.918C59.7712 12.9705 59.8696 12.988 59.964 12.9689C60.202 12.9212 60.362 12.6584 60.3209 12.3814L59.6864 12.918ZM59.6864 12.918L56.5804 11.0169L53.4745 12.918M59.6864 12.918H53.4745M53.4745 12.918C53.4023 12.9624 53.3208 12.9823 53.2394 12.9755C53.1579 12.9688 53.0797 12.9356 53.0137 12.8797M53.4745 12.918L53.0137 12.8797M53.0137 12.8797C52.9476 12.8239 52.8963 12.7476 52.8656 12.6595C52.8349 12.5714 52.826 12.4751 52.8399 12.3814L53.4334 8.3548L50.9211 5.50321C50.8379 5.4088 50.7903 5.2798 50.7887 5.14456C50.7872 5.00932 50.8318 4.8789 50.9129 4.78196M53.0137 12.8797L62.0518 5.33843L59.5398 8.18953L59.4631 8.27654L59.4801 8.39125L60.0736 12.4179L60.0736 12.418C60.0998 12.5947 59.9933 12.708 59.9148 12.7238L59.9144 12.7239C59.8833 12.7302 59.8495 12.725 59.818 12.7055L59.8169 12.7047L56.7109 10.8037L56.5804 10.7238L56.4499 10.8037L53.344 12.7047L53.3436 12.705C53.3149 12.7226 53.2863 12.7286 53.2601 12.7264C53.2336 12.7242 53.2039 12.7132 53.1751 12.6888C53.1458 12.6641 53.1188 12.6264 53.1016 12.5772C53.0845 12.5279 53.0791 12.4724 53.0872 12.4182L53.0872 12.4179L53.6808 8.39125L53.6977 8.27654L53.621 8.18953L51.1086 5.33794L51.1086 5.33793C51.0681 5.29195 51.0396 5.22193 51.0387 5.14172C51.0378 5.06171 51.0646 4.99047 51.1044 4.94263M50.9129 4.78196L51.1041 4.94296C51.1042 4.94285 51.1043 4.94274 51.1044 4.94263M50.9129 4.78196L51.1047 4.94227C51.1046 4.94239 51.1045 4.94251 51.1044 4.94263M50.9129 4.78196C50.9799 4.70235 51.0674 4.64981 51.1631 4.63388L54.6356 4.04637L56.1879 0.382778C56.2959 0.131215 56.5585 0.0277233 56.7746 0.151913L62.0519 5.33824C62.0854 5.30001 62.1109 5.24572 62.1188 5.18139L62.1191 5.179C62.1424 5.00358 62.0345 4.8942 61.9554 4.88028C61.9553 4.88026 61.9552 4.88025 61.9551 4.88023L58.4835 4.29287L58.3485 4.27002L58.295 4.14391L56.7427 0.480311L56.7427 0.480109C56.7194 0.425037 56.6844 0.388349 56.6504 0.368842L56.6501 0.368666C56.5863 0.332019 56.4777 0.342128 56.4178 0.480952C56.4177 0.481114 56.4177 0.481275 56.4176 0.481437L54.8658 4.14391L54.8124 4.27002L54.6773 4.29287L51.2048 4.88038L51.2042 4.8805C51.1733 4.88563 51.1372 4.90375 51.1044 4.94263" fill="white" stroke="#969696" stroke-width="0.5"/>
</svg>
