<svg width="78" height="111" viewBox="0 0 78 111" fill="none" xmlns="http://www.w3.org/2000/svg">
<path d="M36.9875 41.9235C49.0084 41.9235 57.5948 38.0786 57.5948 29.5208C57.5948 20.2188 52.443 14.0174 42.1393 9.36643L46.1921 4.65339C46.398 4.34419 46.5096 3.99131 46.5158 3.63055C46.5219 3.2698 46.4223 2.914 46.227 2.5992C46.0318 2.28441 45.7478 2.02181 45.4039 1.83804C45.06 1.65426 44.6684 1.55583 44.2687 1.55273H29.7062C29.3066 1.55583 28.9149 1.65426 28.571 1.83804C28.2271 2.02181 27.9431 2.28441 27.7479 2.5992C27.5526 2.914 27.453 3.2698 27.4591 3.63055C27.4653 3.99131 27.5769 4.34419 27.7829 4.65339L31.8356 9.39742C21.532 14.0794 16.3801 20.2808 16.3801 29.5828C16.3801 38.0786 24.9665 41.9235 36.9875 41.9235Z" stroke="black" stroke-width="2" stroke-linecap="round" stroke-linejoin="round"/>
<path d="M41.7367 21.1349C41.5734 20.717 41.3213 20.3371 41.001 20.0135C40.3198 19.3252 39.3297 18.8921 38.2277 18.8921H35.3477C33.5134 18.8921 32.0264 20.2366 32.0264 21.8951C32.0264 23.3064 33.1132 24.5272 34.6379 24.8288L39.0228 25.6961C40.731 26.0339 41.9485 27.4026 41.9485 28.9836C41.9485 30.8416 40.2826 32.3492 38.2277 32.3492H35.7472C34.1271 32.3492 32.7489 31.4129 32.2381 30.1062" stroke="black" stroke-width="2" stroke-linecap="round" stroke-linejoin="round"/>
<path d="M36.9874 18.8916V15.5273" stroke="black" stroke-width="2" stroke-linecap="round" stroke-linejoin="round"/>
<path d="M36.9874 35.7128V32.3484" stroke="black" stroke-width="2" stroke-linecap="round" stroke-linejoin="round"/>
<path d="M3.04065 49.0366L15.2155 55.7047L26.083 53.7899C29.7515 53.1435 33.511 54.2122 36.3194 56.6998" stroke="black" stroke-width="2" stroke-linecap="round" stroke-linejoin="round"/>
<path d="M62.595 84.0303L45.3815 96.4715C41.5976 99.2065 36.5411 99.2556 32.7063 96.5951L3.04065 76.0149" stroke="black" stroke-width="2" stroke-linecap="round" stroke-linejoin="round"/>
<path d="M74.3576 75.8827L62.1778 84.3527L43.2799 68.8238L36.3286 73.9725C33.5021 76.0661 29.5536 75.502 27.4027 72.6974C25.2567 69.8992 25.6707 65.8747 28.3396 63.5894L35.5776 57.3918C39.0467 54.4214 43.5563 53.0196 48.0642 53.5105L59.3449 54.7387L74.3576 46.4805" stroke="black" stroke-width="2" stroke-linecap="round" stroke-linejoin="round"/>
<path d="M43.2823 68.8649C47.8296 72.9879 54.2785 70.8845 56.6762 67.5188" stroke="black" stroke-width="2" stroke-linecap="round" stroke-linejoin="round"/>
</svg>
