<svg width="68" height="14" viewBox="0 0 68 14" fill="none" xmlns="http://www.w3.org/2000/svg">
<path d="M12.1677 4.9368L8.39821 4.34929L6.71316 0.685696C6.66713 0.585389 6.59142 0.504188 6.49789 0.45483C6.26331 0.330641 5.97827 0.434132 5.86098 0.685696L4.17593 4.34929L0.406467 4.9368C0.302544 4.95272 0.207527 5.00527 0.134781 5.08487C0.0468341 5.18182 -0.0016285 5.31224 4.17861e-05 5.44748C0.00171207 5.58272 0.0533786 5.71172 0.143689 5.80613L2.87095 8.65771L2.22662 12.6843C2.21151 12.778 2.22117 12.8743 2.25452 12.9624C2.28786 13.0505 2.34355 13.1268 2.41527 13.1826C2.48699 13.2385 2.57186 13.2717 2.66028 13.2785C2.74869 13.2852 2.8371 13.2653 2.91548 13.2209L6.28707 11.3198L9.65865 13.2209C9.7507 13.2734 9.85759 13.2909 9.96003 13.2718C10.2184 13.2241 10.3921 12.9614 10.3475 12.6843L9.70319 8.65771L12.4304 5.80613C12.5047 5.72811 12.5537 5.62621 12.5685 5.51476C12.6086 5.23613 12.4275 4.9782 12.1677 4.9368Z" fill="#F3B004"/>
<path d="M25.709 4.9368L21.9395 4.34929L20.2545 0.685696C20.2085 0.585389 20.1327 0.504188 20.0392 0.45483C19.8046 0.330641 19.5196 0.434132 19.4023 0.685696L17.7173 4.34929L13.9478 4.9368C13.8439 4.95272 13.7488 5.00527 13.6761 5.08487C13.5882 5.18182 13.5397 5.31224 13.5414 5.44748C13.543 5.58272 13.5947 5.71172 13.685 5.80613L16.4123 8.65771L15.7679 12.6843C15.7528 12.778 15.7625 12.8743 15.7958 12.9624C15.8292 13.0505 15.8849 13.1268 15.9566 13.1826C16.0283 13.2385 16.1132 13.2717 16.2016 13.2785C16.29 13.2852 16.3784 13.2653 16.4568 13.2209L19.8284 11.3198L23.2 13.2209C23.292 13.2734 23.3989 13.2909 23.5014 13.2718C23.7597 13.2241 23.9334 12.9614 23.8888 12.6843L23.2445 8.65771L25.9718 5.80613C26.046 5.72811 26.095 5.62621 26.1098 5.51476C26.1499 5.23613 25.9688 4.9782 25.709 4.9368Z" fill="#F3B004"/>
<path d="M39.2816 4.9368L35.8021 4.34929L34.2466 0.685696C34.2041 0.585389 34.1343 0.504188 34.0479 0.45483C33.8314 0.330641 33.5683 0.434132 33.46 0.685696L31.9046 4.34929L28.4251 4.9368C28.3291 4.95272 28.2414 5.00527 28.1743 5.08487C28.0931 5.18182 28.0484 5.31224 28.0499 5.44748C28.0514 5.58272 28.0991 5.71172 28.1825 5.80613L30.7 8.65771L30.1052 12.6843C30.0913 12.778 30.1002 12.8743 30.131 12.9624C30.1617 13.0505 30.2131 13.1268 30.2793 13.1826C30.3455 13.2385 30.4239 13.2717 30.5055 13.2785C30.5871 13.2852 30.6687 13.2653 30.7411 13.2209L33.8533 11.3198L36.9655 13.2209C37.0505 13.2734 37.1492 13.2909 37.2437 13.2718C37.4822 13.2241 37.6425 12.9614 37.6014 12.6843L37.0067 8.65771L39.5241 5.80613C39.5926 5.72811 39.6379 5.62621 39.6516 5.51476C39.6886 5.23613 39.5214 4.9782 39.2816 4.9368Z" fill="#F3B004"/>
<path d="M49.7623 4.45376L49.8183 4.57565L49.9509 4.59631L53.7195 5.18369C53.7196 5.18371 53.7198 5.18373 53.7199 5.18375C53.8325 5.20192 53.9347 5.32335 53.9122 5.47916L53.9119 5.48175C53.9039 5.54163 53.8779 5.59442 53.8408 5.63355C53.8407 5.63363 53.8406 5.63372 53.8405 5.6338L51.1137 8.48492L51.0279 8.57463L51.0475 8.69722L51.6918 12.7238L51.6919 12.724C51.7172 12.8814 51.6166 13.0055 51.5058 13.026L51.5054 13.0261C51.4608 13.0344 51.4141 13.0268 51.3738 13.0038L51.3726 13.0031L48.001 11.1021L47.8783 11.0328L47.7555 11.1021L44.3839 13.0031L44.3835 13.0033C44.3476 13.0237 44.3086 13.0321 44.2705 13.0292C44.2324 13.0263 44.1941 13.0119 44.1601 12.9854C44.1259 12.9588 44.0972 12.9207 44.0795 12.8739C44.0618 12.827 44.0564 12.775 44.0646 12.7241L44.0647 12.7238L44.709 8.69722L44.7286 8.57463L44.6428 8.48492L41.9155 5.63334L41.9155 5.63332C41.8707 5.58641 41.8421 5.51879 41.8412 5.44439C41.8403 5.37016 41.867 5.30163 41.9108 5.25319C41.9473 5.21344 41.9914 5.19068 42.0355 5.18392L42.0362 5.18382L45.8056 4.59631L45.9382 4.57565L45.9942 4.45376L47.6788 0.791335C47.6788 0.791164 47.6789 0.790992 47.679 0.79082C47.7409 0.658637 47.8743 0.623976 47.9721 0.675776L47.9724 0.675933C48.015 0.698406 48.053 0.737366 48.0771 0.789952L48.0772 0.790162L49.7623 4.45376ZM45.7671 4.34929L41.9977 4.9368L47.4522 0.685696L45.7671 4.34929Z" fill="white" stroke="#969696" stroke-width="0.5"/>
<path d="M63.3035 4.45376L63.3596 4.57565L63.4922 4.59631L67.2608 5.18369C67.2609 5.18371 67.261 5.18373 67.2612 5.18375C67.3737 5.20192 67.4759 5.32335 67.4535 5.47916L67.4532 5.48175C67.4452 5.54163 67.4191 5.59442 67.382 5.63355C67.3819 5.63363 67.3819 5.63372 67.3818 5.6338L64.655 8.48492L64.5692 8.57463L64.5888 8.69722L65.2331 12.7238L65.2331 12.724C65.2584 12.8814 65.1579 13.0055 65.047 13.026L65.0466 13.0261C65.002 13.0344 64.9554 13.0268 64.915 13.0038L64.9139 13.0031L61.5423 11.1021L61.4195 11.0328L61.2967 11.1021L57.9251 13.0031L57.9247 13.0033C57.8888 13.0237 57.8499 13.0321 57.8118 13.0292C57.7737 13.0263 57.7353 13.0119 57.7013 12.9854C57.6672 12.9588 57.6385 12.9207 57.6208 12.8739C57.603 12.827 57.5977 12.775 57.6059 12.7241L57.6059 12.7238L58.2503 8.69722L58.2699 8.57463L58.1841 8.48492L55.4568 5.63334L55.4568 5.63332C55.4119 5.58641 55.3834 5.51879 55.3825 5.44439C55.3816 5.37016 55.4083 5.30163 55.4521 5.25319C55.4885 5.21344 55.5326 5.19068 55.5768 5.18392L55.5774 5.18382L59.3469 4.59631L59.4794 4.57565L59.5355 4.45376L61.22 0.791335C61.2201 0.791164 61.2202 0.790992 61.2203 0.79082C61.2822 0.658637 61.4155 0.623976 61.5134 0.675776L61.5137 0.675933C61.5562 0.698406 61.5943 0.737366 61.6184 0.789952L61.6185 0.790162L63.3035 4.45376ZM59.3084 4.34929L55.5389 4.9368L60.9934 0.685696L59.3084 4.34929Z" fill="white" stroke="#969696" stroke-width="0.5"/>
</svg>
