<svg width="70" height="14" viewBox="0 0 70 14" fill="none" xmlns="http://www.w3.org/2000/svg">
<path d="M12.5216 4.9368L8.64248 4.34929L6.90842 0.685696C6.86105 0.585389 6.78314 0.504188 6.68688 0.45483C6.44549 0.330641 6.15215 0.434132 6.03145 0.685696L4.29739 4.34929L0.41829 4.9368C0.311343 4.95272 0.213564 5.00527 0.138701 5.08487C0.0481963 5.18182 -0.00167586 5.31224 4.30015e-05 5.44748C0.00176187 5.58272 0.0549312 5.71172 0.147868 5.80613L2.95445 8.65771L2.29138 12.6843C2.27583 12.778 2.28578 12.8743 2.32009 12.9624C2.35441 13.0505 2.41171 13.1268 2.48552 13.1826C2.55932 13.2385 2.64667 13.2717 2.73765 13.2785C2.82864 13.2852 2.91962 13.2653 3.00028 13.2209L6.46993 11.3198L9.93959 13.2209C10.0343 13.2734 10.1443 13.2909 10.2497 13.2718C10.5156 13.2241 10.6943 12.9614 10.6485 12.6843L9.98542 8.65771L12.792 5.80613C12.8684 5.72811 12.9188 5.62621 12.9341 5.51476C12.9753 5.23613 12.7889 4.9782 12.5216 4.9368Z" fill="#F3B004"/>
<path d="M26.4568 4.9368L22.5777 4.34929L20.8436 0.685696C20.7962 0.585389 20.7183 0.504188 20.6221 0.45483C20.3807 0.330641 20.0873 0.434132 19.9666 0.685696L18.2326 4.34929L14.3535 4.9368C14.2465 4.95272 14.1487 5.00527 14.0739 5.08487C13.9834 5.18182 13.9335 5.31224 13.9352 5.44748C13.9369 5.58272 13.9901 5.71172 14.083 5.80613L16.8896 8.65771L16.2266 12.6843C16.211 12.778 16.221 12.8743 16.2553 12.9624C16.2896 13.0505 16.3469 13.1268 16.4207 13.1826C16.4945 13.2385 16.5818 13.2717 16.6728 13.2785C16.7638 13.2852 16.8548 13.2653 16.9355 13.2209L20.4051 11.3198L23.8748 13.2209C23.9695 13.2734 24.0795 13.2909 24.1849 13.2718C24.4508 13.2241 24.6295 12.9614 24.5837 12.6843L23.9206 8.65771L26.7272 5.80613C26.8036 5.72811 26.854 5.62621 26.8693 5.51476C26.9105 5.23613 26.7241 4.9782 26.4568 4.9368Z" fill="#F3B004"/>
<path d="M40.4241 4.9368L36.8434 4.34929L35.2427 0.685696C35.199 0.585389 35.1271 0.504188 35.0382 0.45483C34.8154 0.330641 34.5446 0.434132 34.4332 0.685696L32.8325 4.34929L29.2518 4.9368C29.1531 4.95272 29.0629 5.00527 28.9938 5.08487C28.9102 5.18182 28.8642 5.31224 28.8658 5.44748C28.8673 5.58272 28.9164 5.71172 29.0022 5.80613L31.5929 8.65771L30.9808 12.6843C30.9665 12.778 30.9757 12.8743 31.0073 12.9624C31.039 13.0505 31.0919 13.1268 31.16 13.1826C31.2282 13.2385 31.3088 13.2717 31.3928 13.2785C31.4768 13.2852 31.5608 13.2653 31.6352 13.2209L34.838 11.3198L38.0407 13.2209C38.1282 13.2734 38.2297 13.2909 38.327 13.2718C38.5724 13.2241 38.7374 12.9614 38.6951 12.6843L38.083 8.65771L40.6737 5.80613C40.7442 5.72811 40.7908 5.62621 40.8049 5.51476C40.843 5.23613 40.6709 4.9782 40.4241 4.9368Z" fill="#F3B004"/>
<path d="M51.2174 4.45624L51.2744 4.57654L51.4059 4.59647L55.2842 5.18386C55.2844 5.18388 55.2845 5.1839 55.2846 5.18392C55.4098 5.20352 55.5097 5.32934 55.4877 5.47815L55.4873 5.48081C55.4793 5.53913 55.4531 5.59152 55.4144 5.63108C55.4144 5.63113 55.4143 5.63118 55.4143 5.63122L52.6081 8.48235L52.519 8.57293L52.5396 8.69833L53.2027 12.7249L53.2027 12.7251C53.2276 12.8756 53.1295 13.0037 53.0064 13.0258L53.0061 13.0258C52.9567 13.0348 52.9054 13.0265 52.8618 13.0023L52.8606 13.0016L49.391 11.1006L49.2708 11.0348L49.1507 11.1006L45.6811 13.0016L45.6807 13.0019C45.642 13.0231 45.5993 13.0323 45.5571 13.0291C45.5148 13.026 45.4733 13.0106 45.4373 12.9833C45.4012 12.956 45.3718 12.9176 45.3539 12.8716C45.336 12.8256 45.3307 12.7748 45.3389 12.7253L45.339 12.7249L46.002 8.69833L46.0227 8.57293L45.9335 8.48235L43.1269 5.63076L43.1269 5.63075C43.0803 5.58338 43.0518 5.51653 43.0509 5.4443C43.05 5.37223 43.0766 5.3046 43.122 5.25582C43.16 5.21562 43.2071 5.19136 43.256 5.18408L43.2566 5.18398L47.1357 4.59647L47.2673 4.57654L47.3243 4.45624L49.0578 0.79384C49.0578 0.793677 49.0579 0.793515 49.058 0.793353C49.121 0.662741 49.2636 0.620613 49.3734 0.677136L49.3737 0.677287C49.4196 0.700797 49.4588 0.740627 49.4833 0.792438L49.4834 0.792651L51.2174 4.45624Z" fill="white" stroke="#969696" stroke-width="0.5"/>
<path d="M65.1526 4.45624L65.2095 4.57654L65.3411 4.59647L69.2194 5.18386C69.2195 5.18388 69.2197 5.1839 69.2198 5.18392C69.345 5.20352 69.4449 5.32934 69.4229 5.47815L69.4225 5.48081C69.4145 5.53913 69.3883 5.59152 69.3496 5.63108C69.3496 5.63113 69.3495 5.63118 69.3495 5.63122L66.5433 8.48235L66.4542 8.57293L66.4748 8.69833L67.1379 12.7249L67.1379 12.7251C67.1628 12.8756 67.0647 13.0037 66.9416 13.0258L66.9412 13.0258C66.8919 13.0348 66.8406 13.0265 66.7969 13.0023L66.7958 13.0016L63.3261 11.1006L63.206 11.0348L63.0859 11.1006L59.6162 13.0016L59.6158 13.0019C59.5772 13.0231 59.5345 13.0323 59.4923 13.0291C59.45 13.026 59.4085 13.0106 59.3725 12.9833C59.3364 12.956 59.307 12.9176 59.2891 12.8716C59.2712 12.8256 59.2659 12.7748 59.2741 12.7253L59.2741 12.7249L59.9372 8.69833L59.9579 8.57293L59.8687 8.48235L57.0621 5.63076L57.0621 5.63075C57.0155 5.58338 56.987 5.51653 56.9861 5.4443C56.9852 5.37223 57.0118 5.3046 57.0572 5.25582C57.0951 5.21562 57.1423 5.19136 57.1912 5.18408L57.1918 5.18398L61.0709 4.59647L61.2025 4.57654L61.2594 4.45624L62.9929 0.79384C62.993 0.793677 62.9931 0.793515 62.9932 0.793353C63.0561 0.662741 63.1987 0.620613 63.3086 0.677136L63.3089 0.677287C63.3547 0.700797 63.394 0.740627 63.4184 0.792438L63.4185 0.792651L65.1526 4.45624Z" fill="white" stroke="#969696" stroke-width="0.5"/>
</svg>
