<svg width="63" height="13" viewBox="0 0 63 13" fill="none" xmlns="http://www.w3.org/2000/svg">
<path d="M11.3688 4.63449L7.89631 4.04698L6.34403 0.383389C6.30163 0.283082 6.23188 0.201881 6.14572 0.152523C5.92963 0.0283336 5.66704 0.131825 5.55899 0.383389L4.0067 4.04698L0.534232 4.63449C0.438497 4.65042 0.350967 4.70296 0.283952 4.78257C0.202934 4.87951 0.15829 5.00993 0.159829 5.14517C0.161367 5.28041 0.208963 5.40941 0.292158 5.50382L2.80454 8.35541L2.21098 12.382C2.19706 12.4757 2.20596 12.572 2.23668 12.6601C2.26739 12.7482 2.31869 12.8245 2.38476 12.8803C2.45083 12.9362 2.52902 12.9694 2.61047 12.9761C2.69191 12.9829 2.77336 12.963 2.84557 12.9186L5.95151 11.0175L9.05745 12.9186C9.14224 12.9711 9.24072 12.9886 9.33508 12.9695C9.57306 12.9218 9.73307 12.6591 9.69204 12.382L9.09848 8.35541L11.6109 5.50382C11.6792 5.42581 11.7244 5.32391 11.7381 5.21245C11.775 4.93382 11.6081 4.67589 11.3688 4.63449Z" fill="#F3B004"/>
<path d="M23.8432 4.63449L20.3707 4.04698L18.8184 0.383389C18.776 0.283082 18.7062 0.201881 18.6201 0.152523C18.404 0.0283336 18.1414 0.131825 18.0334 0.383389L16.4811 4.04698L13.0086 4.63449C12.9129 4.65042 12.8253 4.70296 12.7583 4.78257C12.6773 4.87951 12.6327 5.00993 12.6342 5.14517C12.6357 5.28041 12.6833 5.40941 12.7665 5.50382L15.2789 8.35541L14.6853 12.382C14.6714 12.4757 14.6803 12.572 14.711 12.6601C14.7418 12.7482 14.7931 12.8245 14.8591 12.8803C14.9252 12.9362 15.0034 12.9694 15.0848 12.9761C15.1663 12.9829 15.2477 12.963 15.3199 12.9186L18.4259 11.0175L21.5318 12.9186C21.6166 12.9711 21.7151 12.9886 21.8095 12.9695C22.0474 12.9218 22.2074 12.6591 22.1664 12.382L21.5728 8.35541L24.0852 5.50382C24.1536 5.42581 24.1987 5.32391 24.2124 5.21245C24.2493 4.93382 24.0825 4.67589 23.8432 4.63449Z" fill="#F3B004"/>
<path d="M36.3464 4.63449L33.141 4.04698L31.7082 0.383389C31.669 0.283082 31.6046 0.201881 31.5251 0.152523C31.3256 0.0283336 31.0832 0.131825 30.9835 0.383389L29.5506 4.04698L26.3453 4.63449C26.2569 4.65042 26.1761 4.70296 26.1142 4.78257C26.0395 4.87951 25.9982 5.00993 25.9997 5.14517C26.0011 5.28041 26.045 5.40941 26.1218 5.50382L28.4409 8.35541L27.893 12.382C27.8802 12.4757 27.8884 12.572 27.9168 12.6601C27.9451 12.7482 27.9925 12.8245 28.0535 12.8803C28.1144 12.9362 28.1866 12.9694 28.2618 12.9761C28.337 12.9829 28.4122 12.963 28.4788 12.9186L31.3458 11.0175L34.2129 12.9186C34.2911 12.9711 34.382 12.9886 34.4691 12.9695C34.6888 12.9218 34.8365 12.6591 34.7986 12.382L34.2507 8.35541L36.5699 5.50382C36.633 5.42581 36.6746 5.32391 36.6873 5.21245C36.7213 4.93382 36.5673 4.67589 36.3464 4.63449Z" fill="#F3B004"/>
<path d="M47.3717 12.9186C47.4565 12.9711 47.5549 12.9886 47.6493 12.9695C47.8873 12.9218 48.0473 12.6591 48.0063 12.382L47.3717 12.9186ZM47.3717 12.9186L44.2657 11.0175L41.1598 12.9186M47.3717 12.9186H41.1598M41.1598 12.9186C41.0876 12.963 41.0061 12.9829 40.9247 12.9761C40.8432 12.9694 40.765 12.9362 40.699 12.8803M41.1598 12.9186L40.699 12.8803M40.699 12.8803C40.6329 12.8245 40.5816 12.7482 40.5509 12.6601C40.5202 12.572 40.5113 12.4757 40.5252 12.382L41.1187 8.35541L38.6064 5.50382C38.5232 5.40941 38.4756 5.28041 38.474 5.14517C38.4725 5.00993 38.5171 4.87951 38.5982 4.78257M40.699 12.8803L49.7371 5.33904L47.2251 8.19014L47.1485 8.27715L47.1654 8.39186L47.7589 12.4185L47.7589 12.4186C47.7851 12.5953 47.6786 12.7087 47.6001 12.7244L47.5997 12.7245C47.5686 12.7308 47.5348 12.7256 47.5033 12.7061L47.5022 12.7053L44.3962 10.8043L44.2657 10.7244L44.1352 10.8043L41.0293 12.7053L41.0289 12.7056C41.0002 12.7232 40.9716 12.7292 40.9454 12.727C40.9189 12.7248 40.8892 12.7138 40.8604 12.6894C40.8311 12.6647 40.8041 12.627 40.7869 12.5778C40.7698 12.5285 40.7644 12.4731 40.7725 12.4188L40.7725 12.4185L41.3661 8.39186L41.383 8.27715L41.3063 8.19014L38.7939 5.33855L38.7939 5.33854C38.7534 5.29256 38.7249 5.22254 38.724 5.14233C38.7231 5.06232 38.7499 4.99108 38.7897 4.94324M38.5982 4.78257L38.7894 4.94357C38.7895 4.94346 38.7896 4.94335 38.7897 4.94324M38.5982 4.78257L38.79 4.94288C38.7899 4.943 38.7898 4.94312 38.7897 4.94324M38.5982 4.78257C38.6652 4.70296 38.7527 4.65042 38.8484 4.63449L42.3209 4.04698L43.8732 0.383389C43.9812 0.131825 44.2438 0.0283336 44.4599 0.152523L49.7372 5.33885C49.7707 5.30062 49.7962 5.24633 49.8041 5.182L49.8044 5.17961C49.8277 5.00419 49.7198 4.89481 49.6407 4.88089C49.6406 4.88087 49.6405 4.88086 49.6404 4.88084L46.1688 4.29348L46.0338 4.27063L45.9803 4.14452L44.428 0.480921L44.428 0.48072C44.4047 0.425647 44.3697 0.388959 44.3357 0.369452L44.3354 0.369277C44.2716 0.332629 44.163 0.342739 44.1031 0.481563C44.103 0.481724 44.103 0.481885 44.1029 0.482047L42.5511 4.14452L42.4977 4.27063L42.3626 4.29348L38.8901 4.88099L38.8895 4.88111C38.8586 4.88624 38.8225 4.90436 38.7897 4.94324" fill="white" stroke="#969696" stroke-width="0.5"/>
<path d="M59.846 12.9186C59.9308 12.9711 60.0293 12.9886 60.1237 12.9695C60.3616 12.9218 60.5216 12.6591 60.4806 12.382L59.846 12.9186ZM59.846 12.9186L56.7401 11.0175L53.6341 12.9186M59.846 12.9186H53.6341M53.6341 12.9186C53.5619 12.963 53.4805 12.9829 53.399 12.9761C53.3176 12.9694 53.2394 12.9362 53.1733 12.8803M53.6341 12.9186L53.1733 12.8803M53.1733 12.8803C53.1073 12.8245 53.056 12.7482 53.0253 12.6601C52.9945 12.572 52.9856 12.4757 52.9995 12.382L53.5931 8.35541L51.0807 5.50382C50.9975 5.40941 50.9499 5.28041 50.9484 5.14517C50.9469 5.00993 50.9915 4.87951 51.0725 4.78257M53.1733 12.8803L62.2114 5.33904L59.6995 8.19014L59.6228 8.27715L59.6397 8.39186L60.2333 12.4185L60.2333 12.4186C60.2595 12.5953 60.153 12.7087 60.0745 12.7244L60.0741 12.7245C60.0429 12.7308 60.0092 12.7256 59.9777 12.7061L59.9765 12.7053L56.8706 10.8043L56.7401 10.7244L56.6096 10.8043L53.5036 12.7053L53.5032 12.7056C53.4746 12.7232 53.446 12.7292 53.4197 12.727C53.3932 12.7248 53.3636 12.7138 53.3348 12.6894C53.3055 12.6647 53.2785 12.627 53.2613 12.5778C53.2441 12.5285 53.2388 12.4731 53.2468 12.4188L53.2469 12.4185L53.8404 8.39186L53.8573 8.27715L53.7807 8.19014L51.2683 5.33855L51.2683 5.33854C51.2278 5.29256 51.1993 5.22254 51.1984 5.14233C51.1975 5.06232 51.2242 4.99108 51.2641 4.94324M51.0725 4.78257L51.2638 4.94357C51.2639 4.94346 51.264 4.94335 51.2641 4.94324M51.0725 4.78257L51.2644 4.94288C51.2643 4.943 51.2642 4.94312 51.2641 4.94324M51.0725 4.78257C51.1395 4.70296 51.2271 4.65042 51.3228 4.63449L54.7953 4.04698L56.3476 0.383389C56.4556 0.131825 56.7182 0.0283336 56.9343 0.152523L62.2116 5.33885C62.245 5.30062 62.2706 5.24633 62.2785 5.182L62.2788 5.17961C62.302 5.00419 62.1941 4.89481 62.1151 4.88089C62.115 4.88087 62.1149 4.88086 62.1148 4.88084L58.6432 4.29348L58.5081 4.27063L58.4547 4.14452L56.9024 0.480921L56.9023 0.48072C56.879 0.425647 56.8441 0.388959 56.81 0.369452L56.8097 0.369277C56.746 0.332629 56.6373 0.342739 56.5775 0.481563C56.5774 0.481724 56.5773 0.481885 56.5773 0.482047L55.0255 4.14452L54.972 4.27063L54.837 4.29348L51.3645 4.88099L51.3638 4.88111C51.333 4.88624 51.2969 4.90436 51.2641 4.94324" fill="white" stroke="#969696" stroke-width="0.5"/>
</svg>
