<svg width="63" height="13" viewBox="0 0 63 13" fill="none" xmlns="http://www.w3.org/2000/svg">
<path d="M11.209 4.63511L7.73649 4.04759L6.1842 0.383999C6.14181 0.283692 6.07206 0.202491 5.98589 0.153134C5.76981 0.028944 5.50722 0.132435 5.39917 0.383999L3.84688 4.04759L0.374412 4.63511C0.278676 4.65103 0.191146 4.70357 0.124131 4.78318C0.0431136 4.88012 -0.00153071 5.01054 7.97629e-06 5.14578C0.00154666 5.28102 0.0491424 5.41002 0.132337 5.50443L2.64472 8.35602L2.05116 12.3826C2.03724 12.4763 2.04614 12.5726 2.07686 12.6607C2.10757 12.7488 2.15887 12.8251 2.22494 12.8809C2.29101 12.9368 2.3692 12.97 2.45065 12.9768C2.53209 12.9835 2.61354 12.9636 2.68575 12.9192L5.79169 11.0181L8.89763 12.9192C8.98242 12.9717 9.0809 12.9892 9.17526 12.9701C9.41324 12.9224 9.57325 12.6597 9.53222 12.3826L8.93866 8.35602L11.451 5.50443C11.5194 5.42642 11.5646 5.32452 11.5782 5.21306C11.6152 4.93443 11.4483 4.6765 11.209 4.63511Z" fill="#F3B004"/>
<path d="M23.6834 4.63511L20.2109 4.04759L18.6586 0.383999C18.6162 0.283692 18.5465 0.202491 18.4603 0.153134C18.2442 0.028944 17.9816 0.132435 17.8736 0.383999L16.3213 4.04759L12.8488 4.63511C12.7531 4.65103 12.6656 4.70357 12.5986 4.78318C12.5175 4.88012 12.4729 5.01054 12.4744 5.14578C12.476 5.28102 12.5236 5.41002 12.6068 5.50443L15.1191 8.35602L14.5256 12.3826C14.5117 12.4763 14.5206 12.5726 14.5513 12.6607C14.582 12.7488 14.6333 12.8251 14.6994 12.8809C14.7654 12.9368 14.8436 12.97 14.9251 12.9768C15.0065 12.9835 15.088 12.9636 15.1602 12.9192L18.2661 11.0181L21.3721 12.9192C21.4569 12.9717 21.5553 12.9892 21.6497 12.9701C21.8877 12.9224 22.0477 12.6597 22.0066 12.3826L21.4131 8.35602L23.9255 5.50443C23.9938 5.42642 24.039 5.32452 24.0527 5.21306C24.0896 4.93443 23.9227 4.6765 23.6834 4.63511Z" fill="#F3B004"/>
<path d="M36.1866 4.63511L32.9812 4.04759L31.5484 0.383999C31.5092 0.283692 31.4448 0.202491 31.3653 0.153134C31.1658 0.028944 30.9235 0.132435 30.8237 0.383999L29.3908 4.04759L26.1855 4.63511C26.0971 4.65103 26.0163 4.70357 25.9545 4.78318C25.8797 4.88012 25.8385 5.01054 25.8399 5.14578C25.8413 5.28102 25.8852 5.41002 25.962 5.50443L28.2811 8.35602L27.7332 12.3826C27.7204 12.4763 27.7286 12.5726 27.757 12.6607C27.7853 12.7488 27.8327 12.8251 27.8937 12.8809C27.9546 12.9368 28.0268 12.97 28.102 12.9768C28.1772 12.9835 28.2524 12.9636 28.319 12.9192L31.186 11.0181L34.0531 12.9192C34.1313 12.9717 34.2222 12.9892 34.3093 12.9701C34.529 12.9224 34.6767 12.6597 34.6388 12.3826L34.0909 8.35602L36.4101 5.50443C36.4732 5.42642 36.5148 5.32452 36.5275 5.21306C36.5616 4.93443 36.4075 4.6765 36.1866 4.63511Z" fill="#F3B004"/>
<path d="M47.2119 12.9192C47.2967 12.9717 47.3952 12.9892 47.4895 12.9701C47.7275 12.9224 47.8875 12.6597 47.8465 12.3826L47.2119 12.9192ZM47.2119 12.9192L44.106 11.0181L41 12.9192M47.2119 12.9192H41M41 12.9192C40.9278 12.9636 40.8464 12.9835 40.7649 12.9768C40.6835 12.97 40.6053 12.9368 40.5392 12.8809M41 12.9192L40.5392 12.8809M40.5392 12.8809C40.4731 12.8251 40.4218 12.7488 40.3911 12.6607C40.3604 12.5726 40.3515 12.4763 40.3654 12.3826L40.959 8.35602L38.4466 5.50443C38.3634 5.41002 38.3158 5.28102 38.3143 5.14578C38.3127 5.01054 38.3574 4.88012 38.4384 4.78318M40.5392 12.8809L49.5773 5.33965L47.0653 8.19075L46.9887 8.27776L47.0056 8.39248L47.5992 12.4191L47.5992 12.4193C47.6254 12.5959 47.5189 12.7093 47.4403 12.725L47.4399 12.7251C47.4088 12.7314 47.3751 12.7262 47.3436 12.7067L47.3424 12.706L44.2365 10.8049L44.106 10.725L43.9754 10.8049L40.8695 12.706L40.8691 12.7062C40.8405 12.7238 40.8119 12.7298 40.7856 12.7276C40.7591 12.7254 40.7295 12.7144 40.7006 12.69C40.6714 12.6653 40.6444 12.6277 40.6272 12.5784C40.61 12.5291 40.6046 12.4737 40.6127 12.4194L40.6128 12.4191L41.2063 8.39248L41.2232 8.27776L41.1466 8.19075L38.6342 5.33917L38.6342 5.33915C38.5937 5.29317 38.5652 5.22315 38.5643 5.14294C38.5634 5.06293 38.5901 4.99169 38.6299 4.94385M38.4384 4.78318L38.6297 4.94418C38.6298 4.94407 38.6298 4.94396 38.6299 4.94385M38.4384 4.78318L38.6302 4.94349C38.6301 4.94361 38.63 4.94373 38.6299 4.94385M38.4384 4.78318C38.5054 4.70357 38.5929 4.65103 38.6887 4.63511L42.1612 4.04759L43.7134 0.383999C43.8215 0.132435 44.0841 0.028944 44.3002 0.153134L49.5775 5.33946C49.6109 5.30123 49.6365 5.24694 49.6444 5.18261L49.6447 5.18022C49.6679 5.0048 49.56 4.89542 49.4809 4.8815C49.4808 4.88148 49.4807 4.88147 49.4806 4.88145L46.0091 4.29409L45.874 4.27124L45.8206 4.14513L44.2683 0.481532L44.2682 0.48133C44.2449 0.426258 44.21 0.38957 44.1759 0.370062L44.1756 0.369887C44.1118 0.333239 44.0032 0.343349 43.9434 0.482173C43.9433 0.482334 43.9432 0.482496 43.9432 0.482657L42.3913 4.14513L42.3379 4.27124L42.2029 4.29409L38.7304 4.8816L38.7297 4.88172C38.6989 4.88685 38.6628 4.90497 38.6299 4.94385" fill="white" stroke="#969696" stroke-width="0.5"/>
<path d="M59.6863 12.9192C59.7711 12.9717 59.8696 12.9892 59.9639 12.9701C60.2019 12.9224 60.3619 12.6597 60.3209 12.3826L59.6863 12.9192ZM59.6863 12.9192L56.5804 11.0181L53.4744 12.9192M59.6863 12.9192H53.4744M53.4744 12.9192C53.4022 12.9636 53.3208 12.9835 53.2393 12.9768C53.1579 12.97 53.0797 12.9368 53.0136 12.8809M53.4744 12.9192L53.0136 12.8809M53.0136 12.8809C52.9475 12.8251 52.8962 12.7488 52.8655 12.6607C52.8348 12.5726 52.8259 12.4763 52.8398 12.3826L53.4334 8.35602L50.921 5.50443C50.8378 5.41002 50.7902 5.28102 50.7887 5.14578C50.7871 5.01054 50.8318 4.88012 50.9128 4.78318M53.0136 12.8809L62.0517 5.33965L59.5397 8.19075L59.4631 8.27776L59.48 8.39248L60.0736 12.4191L60.0736 12.4193C60.0997 12.5959 59.9933 12.7093 59.9147 12.725L59.9143 12.7251C59.8832 12.7314 59.8495 12.7262 59.818 12.7067L59.8168 12.706L56.7109 10.8049L56.5804 10.725L56.4498 10.8049L53.3439 12.706L53.3435 12.7062C53.3149 12.7238 53.2863 12.7298 53.26 12.7276C53.2335 12.7254 53.2038 12.7144 53.175 12.69C53.1458 12.6653 53.1188 12.6277 53.1016 12.5784C53.0844 12.5291 53.079 12.4737 53.0871 12.4194L53.0871 12.4191L53.6807 8.39248L53.6976 8.27776L53.621 8.19075L51.1086 5.33917L51.1086 5.33915C51.0681 5.29317 51.0396 5.22315 51.0387 5.14294C51.0377 5.06293 51.0645 4.99169 51.1043 4.94385M50.9128 4.78318L51.1041 4.94418C51.1041 4.94407 51.1042 4.94396 51.1043 4.94385M50.9128 4.78318L51.1046 4.94349C51.1045 4.94361 51.1044 4.94373 51.1043 4.94385M50.9128 4.78318C50.9798 4.70357 51.0673 4.65103 51.1631 4.63511L54.6356 4.04759L56.1878 0.383999C56.2959 0.132435 56.5585 0.028944 56.7746 0.153134L62.0519 5.33946C62.0853 5.30123 62.1109 5.24694 62.1188 5.18261L62.1191 5.18022C62.1423 5.0048 62.0344 4.89542 61.9553 4.8815C61.9552 4.88148 61.9551 4.88147 61.955 4.88145L58.4835 4.29409L58.3484 4.27124L58.295 4.14513L56.7427 0.481532L56.7426 0.48133C56.7193 0.426258 56.6843 0.38957 56.6503 0.370062L56.65 0.369887C56.5862 0.333239 56.4776 0.343349 56.4178 0.482173C56.4177 0.482334 56.4176 0.482496 56.4175 0.482657L54.8657 4.14513L54.8123 4.27124L54.6773 4.29409L51.2048 4.8816L51.2041 4.88172C51.1733 4.88685 51.1372 4.90497 51.1043 4.94385" fill="white" stroke="#969696" stroke-width="0.5"/>
</svg>
