<svg width="87" height="89" viewBox="0 0 87 89" fill="none" xmlns="http://www.w3.org/2000/svg">
<g clip-path="url(#clip0_102_689)">
<path d="M35.624 30.2062C24.565 21.8783 14.2548 28.2355 5.61496 38.0255L24.7378 50.7398" stroke="black" stroke-width="2" stroke-linecap="round" stroke-linejoin="round"/>
<path d="M58.5485 55.5083C66.0938 67.7138 60.3339 79.093 51.4638 88.6288L39.944 67.523" stroke="black" stroke-width="2" stroke-linecap="round" stroke-linejoin="round"/>
<path d="M24.7379 50.6774L40.0016 67.5238C52.2126 59.4502 66.0939 51.6309 72.4298 44.3838C86.1383 29.2537 78.1896 8.5295 78.1896 8.5295C78.1896 8.5295 59.4124 -0.243362 45.7039 14.8866C39.1376 21.8795 31.9953 37.2638 24.7379 50.6774Z" stroke="black" stroke-width="2" stroke-linecap="round" stroke-linejoin="round"/>
<path d="M33.1475 34.7205L54.4591 58.2419" stroke="black" stroke-width="2" stroke-linecap="round" stroke-linejoin="round"/>
<path d="M63.2139 28.236C64.8042 28.236 66.0938 26.8129 66.0938 25.0575C66.0938 23.302 64.8042 21.8789 63.2139 21.8789C61.6236 21.8789 60.334 23.302 60.334 25.0575C60.334 26.8129 61.6236 28.236 63.2139 28.236Z" stroke="black" stroke-width="2" stroke-linecap="round" stroke-linejoin="round"/>
<path d="M22.5725 81.8898C19.0026 85.4498 3 88.6284 3 88.6284C3 88.6284 6.07743 72.0998 9.52415 68.4127C10.3693 67.4762 11.3886 66.7248 12.5211 66.2034C13.6536 65.6823 14.8761 65.402 16.1157 65.3794C17.3554 65.3568 18.5867 65.5924 19.7363 66.072C20.8858 66.5513 21.9301 67.2652 22.8068 68.1711C23.6835 69.0763 24.3746 70.1551 24.839 71.3427C25.3033 72.5295 25.5313 73.8016 25.5094 75.0819C25.4876 76.3623 25.2163 77.6248 24.7116 78.7945C24.2071 79.9642 23.4795 81.017 22.5725 81.8898Z" stroke="black" stroke-width="2" stroke-linecap="round" stroke-linejoin="round"/>
</g>
<defs>
<clipPath id="clip0_102_689">
<rect width="86.0963" height="89" fill="white"/>
</clipPath>
</defs>
</svg>
