<svg width="87" height="89" viewBox="0 0 87 89" fill="none" xmlns="http://www.w3.org/2000/svg">
<path d="M13.0079 85.4934V69.7271H28.2601" stroke="black" stroke-width="2" stroke-linecap="round" stroke-linejoin="round"/>
<path d="M82.4958 36.9673C86.2908 57.8295 73.941 78.5121 53.7771 84.0968C38.3445 88.3714 22.5981 82.6214 13.0079 70.7081" stroke="black" stroke-width="2" stroke-linecap="round" stroke-linejoin="round"/>
<path d="M4.53105 52.0334C0.73603 31.1713 13.0862 10.4889 33.2499 4.90382C48.6814 0.629495 64.4267 6.37846 74.0172 18.2901" stroke="black" stroke-width="2" stroke-linecap="round" stroke-linejoin="round"/>
<path d="M74.0178 3.50684V19.2735H58.7653" stroke="black" stroke-width="2" stroke-linecap="round" stroke-linejoin="round"/>
<path d="M43.5133 41.3216C47.7588 41.3216 51.2005 37.7638 51.2005 33.3751C51.2005 28.9864 47.7588 25.4287 43.5133 25.4287C39.2678 25.4287 35.8262 28.9864 35.8262 33.3751C35.8262 37.7638 39.2678 41.3216 43.5133 41.3216Z" stroke="black" stroke-width="2"/>
<path d="M29.4182 60.3929C31.7907 54.7799 37.2088 50.8572 43.5133 50.8572C49.8177 50.8572 55.2359 54.7799 57.6083 60.3929" stroke="black" stroke-width="2" stroke-linecap="round"/>
<g clip-path="url(#clip0_102_698)">
<path d="M73.1528 60.1377C73.1283 59.9964 73.0763 59.8621 72.9999 59.7436C72.9236 59.6252 72.8247 59.5251 72.7096 59.45L70.1774 62.1469C70.0592 62.2774 69.9177 62.3813 69.7611 62.4522C69.6044 62.5231 69.4359 62.5596 69.2658 62.5596C69.0956 62.5596 68.9272 62.5231 68.7705 62.4522C68.6139 62.3813 68.4723 62.2774 68.3542 62.1469L67.3919 61.23C67.1599 60.9779 67.03 60.639 67.03 60.286C67.03 59.9331 67.1599 59.5941 67.3919 59.3421L69.9241 56.6451C69.8689 56.5069 69.7859 56.3834 69.6809 56.2832C69.5758 56.183 69.4515 56.1086 69.3164 56.0653C68.4329 55.8776 67.5177 55.9579 66.6749 56.2971C65.8321 56.6363 65.0957 57.2206 64.5494 57.9837C64.0032 58.7467 63.6691 59.6578 63.5852 60.6132C63.5065 61.5081 63.6504 62.4082 64.0009 63.2236L57.206 70.4604C56.7044 70.9947 56.7127 71.8635 57.2244 72.3867L57.9344 73.1128C58.4297 73.6191 59.2136 73.6129 59.7017 73.0986L66.5746 65.8579C67.318 66.1849 68.1277 66.3092 68.9301 66.2176C69.8173 66.1163 70.6608 65.7549 71.3666 65.1736C72.0726 64.5922 72.6133 63.8138 72.9285 62.9247C73.2439 62.0357 73.3215 61.0709 73.1528 60.1377Z" stroke="black" stroke-width="2" stroke-linecap="round" stroke-linejoin="round"/>
</g>
<defs>
<clipPath id="clip0_102_698">
<rect width="17.7257" height="18.8788" fill="white" transform="translate(56.1746 55.2878)"/>
</clipPath>
</defs>
</svg>
