<svg width="28" height="28" viewBox="0 0 28 28" fill="none" xmlns="http://www.w3.org/2000/svg">
<path d="M27.266 5.85729C27.1722 5.74496 27.0548 5.65461 26.9222 5.59262C26.7895 5.53063 26.6449 5.49851 26.4985 5.49854H6.33354L5.72229 2.14104C5.63856 1.6802 5.39576 1.26337 5.03621 0.963212C4.67665 0.663052 4.22316 0.498603 3.75479 0.498535H1.49854C1.23332 0.498535 0.978965 0.603892 0.791428 0.791428C0.603892 0.978965 0.498535 1.23332 0.498535 1.49854C0.498535 1.76375 0.603892 2.01811 0.791428 2.20564C0.978965 2.39318 1.23332 2.49854 1.49854 2.49854H3.74854L6.94354 20.0348C7.03765 20.5549 7.26749 21.0408 7.60979 21.4435C7.13734 21.8848 6.79635 22.4483 6.62461 23.0715C6.45287 23.6948 6.4571 24.3534 6.63682 24.9744C6.81655 25.5954 7.16475 26.1544 7.64282 26.5896C8.12088 27.0248 8.71014 27.319 9.34523 27.4398C9.98033 27.5605 10.6365 27.503 11.2408 27.2736C11.8452 27.0442 12.3743 26.6518 12.7693 26.1401C13.1644 25.6284 13.41 25.0173 13.4789 24.3745C13.5478 23.7317 13.4374 23.0824 13.1598 22.4985H18.8373C18.6136 22.9669 18.4978 23.4795 18.4985 23.9985C18.4985 24.6908 18.7038 25.3675 19.0884 25.943C19.473 26.5186 20.0196 26.9672 20.6591 27.2321C21.2987 27.497 22.0024 27.5663 22.6814 27.4313C23.3603 27.2962 23.9839 26.9629 24.4734 26.4734C24.9629 25.9839 25.2962 25.3603 25.4313 24.6814C25.5663 24.0024 25.497 23.2987 25.2321 22.6591C24.9672 22.0196 24.5186 21.473 23.943 21.0884C23.3675 20.7038 22.6908 20.4985 21.9985 20.4985H9.89478C9.6606 20.4985 9.43385 20.4163 9.25407 20.2662C9.0743 20.1161 8.9529 19.9077 8.91104 19.6773L8.51478 17.4985H23.0148C23.7173 17.4984 24.3976 17.2518 24.9369 16.8015C25.4762 16.3513 25.8405 15.726 25.966 15.0348L27.486 6.67729C27.5118 6.53284 27.5054 6.38449 27.4674 6.24278C27.4294 6.10107 27.3606 5.96946 27.266 5.85729ZM11.4985 23.9985C11.4985 24.2952 11.4106 24.5852 11.2457 24.8319C11.0809 25.0786 10.8466 25.2708 10.5726 25.3844C10.2985 25.4979 9.99687 25.5276 9.7059 25.4697C9.41493 25.4118 9.14765 25.269 8.93787 25.0592C8.7281 24.8494 8.58523 24.5821 8.52736 24.2912C8.46948 24.0002 8.49918 23.6986 8.61272 23.4245C8.72625 23.1504 8.91851 22.9162 9.16518 22.7513C9.41185 22.5865 9.70186 22.4985 9.99854 22.4985C10.3964 22.4985 10.7779 22.6566 11.0592 22.9379C11.3405 23.2192 11.4985 23.6007 11.4985 23.9985ZM23.4985 23.9985C23.4985 24.2952 23.4106 24.5852 23.2457 24.8319C23.0809 25.0786 22.8466 25.2708 22.5726 25.3844C22.2985 25.4979 21.9969 25.5276 21.7059 25.4697C21.4149 25.4118 21.1477 25.269 20.9379 25.0592C20.7281 24.8494 20.5852 24.5821 20.5274 24.2912C20.4695 24.0002 20.4992 23.6986 20.6127 23.4245C20.7262 23.1504 20.9185 22.9162 21.1652 22.7513C21.4119 22.5865 21.7019 22.4985 21.9985 22.4985C22.3964 22.4985 22.7779 22.6566 23.0592 22.9379C23.3405 23.2192 23.4985 23.6007 23.4985 23.9985ZM23.9985 14.6773C23.9566 14.9083 23.8346 15.1172 23.6541 15.2674C23.4735 15.4176 23.2459 15.4994 23.011 15.4985H8.15104L6.69729 7.49854H25.2998L23.9985 14.6773Z" fill="black"/>
</svg>
