<svg width="35" height="39" viewBox="0 0 35 39" fill="none" xmlns="http://www.w3.org/2000/svg">
<g clip-path="url(#clip0_102_660)">
<path d="M29.7585 20.8929H9.77602L7.33316 6.96436H31.7617C31.9405 6.96511 32.1166 7.01051 32.2783 7.09743C32.4398 7.18432 32.5827 7.31059 32.6968 7.46732C32.8111 7.62401 32.8937 7.8074 32.9389 8.00446C32.9841 8.20155 32.9909 8.40752 32.9587 8.60793L30.9555 19.7508C30.9089 20.073 30.7623 20.3654 30.5427 20.5749C30.3231 20.7845 30.0448 20.8973 29.7585 20.8929Z" stroke="black" stroke-linecap="round" stroke-linejoin="round"/>
<path d="M7.33315 6.96425L6.30715 2.50711C6.25085 2.1925 6.10093 1.90974 5.8828 1.70669C5.66468 1.50363 5.39174 1.39276 5.11015 1.39282H1.22601" stroke="black" stroke-linecap="round" stroke-linejoin="round"/>
<path d="M9.776 20.8928L10.802 26.7428C10.8583 27.0574 11.0082 27.3402 11.2263 27.5432C11.4445 27.7463 11.7174 27.8571 11.999 27.8571H26.8759" stroke="black" stroke-linecap="round" stroke-linejoin="round"/>
<path d="M25.6545 37.607C24.98 37.607 24.4331 36.9833 24.4331 36.2141C24.4331 35.445 24.98 34.8213 25.6545 34.8213C26.3292 34.8213 26.8759 35.445 26.8759 36.2141C26.8759 36.9833 26.3292 37.607 25.6545 37.607Z" stroke="black" stroke-linecap="round" stroke-linejoin="round"/>
<path d="M13.4403 37.607C12.7657 37.607 12.2189 36.9833 12.2189 36.2141C12.2189 35.445 12.7657 34.8213 13.4403 34.8213C14.1149 34.8213 14.6617 35.445 14.6617 36.2141C14.6617 36.9833 14.1149 37.607 13.4403 37.607Z" stroke="black" stroke-linecap="round" stroke-linejoin="round"/>
</g>
<defs>
<clipPath id="clip0_102_660">
<rect width="34.2" height="39" fill="white"/>
</clipPath>
</defs>
</svg>
