<svg width="20" height="19" viewBox="0 0 20 19" fill="none" xmlns="http://www.w3.org/2000/svg">
<path d="M19.134 12.7776H6.49692L7.13142 11.418L17.674 11.3979C18.0305 11.3979 18.3361 11.13 18.3997 10.7594L19.8598 2.16193C19.8979 1.93644 19.8407 1.70426 19.7006 1.52789C19.6314 1.44109 19.545 1.37117 19.4476 1.32298C19.3501 1.27479 19.2438 1.24949 19.1361 1.24882L5.72448 1.20194L5.60988 0.634875C5.53773 0.273204 5.2279 0.00976562 4.87564 0.00976562H1.597C1.39833 0.00976563 1.20779 0.0927955 1.06731 0.24059C0.926823 0.388384 0.8479 0.588837 0.8479 0.797849C0.8479 1.00686 0.926823 1.20731 1.06731 1.35511C1.20779 1.5029 1.39833 1.58593 1.597 1.58593H4.26872L4.76953 4.09083L6.00247 10.3709L4.41514 13.0969C4.33271 13.2139 4.28306 13.3529 4.27181 13.4981C4.26056 13.6433 4.28816 13.7889 4.35148 13.9184C4.47881 14.1841 4.73558 14.3516 5.01994 14.3516H6.35262C6.06851 14.7485 5.91505 15.2321 5.91546 15.729C5.91546 16.9926 6.89163 18.0196 8.09273 18.0196C9.29384 18.0196 10.27 16.9926 10.27 15.729C10.27 15.2312 10.113 14.7467 9.83285 14.3516H13.2515C12.9674 14.7485 12.814 15.2321 12.8144 15.729C12.8144 16.9926 13.7906 18.0196 14.9917 18.0196C16.1928 18.0196 17.1689 16.9926 17.1689 15.729C17.1689 15.2312 17.0119 14.7467 16.7318 14.3516H19.1361C19.5478 14.3516 19.8852 13.9988 19.8852 13.5635C19.884 13.3547 19.8043 13.1549 19.6636 13.0076C19.5228 12.8604 19.3325 12.7777 19.134 12.7776ZM6.03642 2.75578L18.2554 2.7982L17.0586 9.84853L7.46035 9.86639L6.03642 2.75578ZM8.09273 16.4345C7.72349 16.4345 7.42215 16.1175 7.42215 15.729C7.42215 15.3406 7.72349 15.0235 8.09273 15.0235C8.46198 15.0235 8.76332 15.3406 8.76332 15.729C8.76332 15.9161 8.69267 16.0956 8.56691 16.2279C8.44115 16.3602 8.27058 16.4345 8.09273 16.4345ZM14.9917 16.4345C14.6224 16.4345 14.3211 16.1175 14.3211 15.729C14.3211 15.3406 14.6224 15.0235 14.9917 15.0235C15.3609 15.0235 15.6622 15.3406 15.6622 15.729C15.6622 15.9161 15.5916 16.0956 15.4658 16.2279C15.3401 16.3602 15.1695 16.4345 14.9917 16.4345Z" fill="white"/>
</svg>
