<svg width="27" height="27" viewBox="0 0 27 27" fill="none" xmlns="http://www.w3.org/2000/svg">
<path d="M26.7705 5.35875C26.6766 5.24642 26.5592 5.15607 26.4266 5.09408C26.294 5.03209 26.1494 4.99998 26.003 5H5.83799L5.22674 1.6425C5.14302 1.18167 4.90022 0.764838 4.54066 0.464677C4.18111 0.164517 3.72762 6.7693e-05 3.25924 0H1.00299C0.737774 0 0.48342 0.105357 0.295884 0.292893C0.108348 0.48043 0.00299072 0.734784 0.00299072 1C0.00299072 1.26522 0.108348 1.51957 0.295884 1.70711C0.48342 1.89464 0.737774 2 1.00299 2H3.25299L6.44799 19.5362C6.5421 20.0563 6.77194 20.5423 7.11424 20.945C6.6418 21.3863 6.3008 21.9498 6.12906 22.573C5.95732 23.1962 5.96155 23.8549 6.14128 24.4759C6.321 25.0968 6.66921 25.6559 7.14727 26.0911C7.62534 26.5263 8.21459 26.8205 8.84969 26.9412C9.48478 27.062 10.1409 27.0044 10.7453 26.775C11.3497 26.5456 11.8787 26.1533 12.2738 25.6416C12.6688 25.1299 12.9144 24.5187 12.9834 23.8759C13.0523 23.2332 12.9418 22.5838 12.6642 22H18.3417C18.118 22.4684 18.0023 22.981 18.003 23.5C18.003 24.1922 18.2083 24.8689 18.5928 25.4445C18.9774 26.0201 19.5241 26.4687 20.1636 26.7336C20.8031 26.9985 21.5069 27.0678 22.1858 26.9327C22.8647 26.7977 23.4884 26.4644 23.9779 25.9749C24.4673 25.4854 24.8007 24.8617 24.9357 24.1828C25.0708 23.5039 25.0015 22.8001 24.7366 22.1606C24.4717 21.5211 24.0231 20.9744 23.4475 20.5899C22.8719 20.2053 22.1952 20 21.503 20H9.39924C9.16505 20 8.93831 19.9177 8.75853 19.7677C8.57875 19.6176 8.45735 19.4092 8.41549 19.1787L8.01924 17H22.5192C23.2218 16.9999 23.902 16.7532 24.4414 16.303C24.9807 15.8527 25.3449 15.2275 25.4705 14.5362L26.9905 6.17875C27.0162 6.0343 27.0099 5.88596 26.9718 5.74424C26.9338 5.60253 26.8651 5.47092 26.7705 5.35875ZM21.503 22C21.7997 22 22.0897 22.088 22.3363 22.2528C22.583 22.4176 22.7753 22.6519 22.8888 22.926C23.0023 23.2001 23.032 23.5017 22.9742 23.7926C22.9163 24.0836 22.7734 24.3509 22.5637 24.5607C22.3539 24.7704 22.0866 24.9133 21.7956 24.9712C21.5047 25.0291 21.2031 24.9993 20.929 24.8858C20.6549 24.7723 20.4206 24.58 20.2558 24.3334C20.091 24.0867 20.003 23.7967 20.003 23.5C20.003 23.1022 20.161 22.7206 20.4423 22.4393C20.7236 22.158 21.1052 22 21.503 22ZM9.50299 22C9.79966 22 10.0897 22.088 10.3363 22.2528C10.583 22.4176 10.7753 22.6519 10.8888 22.926C11.0023 23.2001 11.032 23.5017 10.9742 23.7926C10.9163 24.0836 10.7734 24.3509 10.5637 24.5607C10.3539 24.7704 10.0866 24.9133 9.79563 24.9712C9.50465 25.0291 9.20305 24.9993 8.92897 24.8858C8.65488 24.7723 8.42061 24.58 8.25579 24.3334C8.09096 24.0867 8.00299 23.7967 8.00299 23.5C8.00299 23.1022 8.16103 22.7206 8.44233 22.4393C8.72363 22.158 9.10517 22 9.50299 22Z" fill="black"/>
</svg>
