<svg width="64" height="13" viewBox="0 0 64 13" fill="none" xmlns="http://www.w3.org/2000/svg">
<path d="M11.6881 4.63388L8.16806 4.04637L6.59451 0.382778C6.55153 0.282471 6.48083 0.20127 6.39349 0.151913C6.17444 0.0277233 5.90825 0.131215 5.79872 0.382778L4.22517 4.04637L0.705133 4.63388C0.608086 4.64981 0.519357 4.70235 0.451424 4.78196C0.369297 4.8789 0.324041 5.00932 0.325601 5.14456C0.32716 5.2798 0.375408 5.4088 0.459742 5.50321L3.00654 8.3548L2.40485 12.3814C2.39074 12.4751 2.39976 12.5714 2.4309 12.6595C2.46204 12.7476 2.51404 12.8239 2.58101 12.8797C2.64798 12.9356 2.72725 12.9688 2.80981 12.9755C2.89237 12.9823 2.97493 12.9624 3.04813 12.918L6.19662 11.0169L9.34511 12.918C9.43106 12.9705 9.53088 12.988 9.62654 12.9689C9.86778 12.9212 10.03 12.6584 9.98839 12.3814L9.3867 8.3548L11.9335 5.50321C12.0028 5.4252 12.0486 5.3233 12.0624 5.21184C12.0999 4.93321 11.9307 4.67528 11.6881 4.63388Z" fill="#F3B004"/>
<path d="M24.3334 4.63388L20.8134 4.04637L19.2398 0.382778C19.1969 0.282471 19.1262 0.20127 19.0388 0.151913C18.8198 0.0277233 18.5536 0.131215 18.444 0.382778L16.8705 4.04637L13.3505 4.63388C13.2534 4.64981 13.1647 4.70235 13.0967 4.78196C13.0146 4.8789 12.9694 5.00932 12.9709 5.14456C12.9725 5.2798 13.0207 5.4088 13.1051 5.50321L15.6519 8.3548L15.0502 12.3814C15.0361 12.4751 15.0451 12.5714 15.0762 12.6595C15.1074 12.7476 15.1594 12.8239 15.2263 12.8797C15.2933 12.9356 15.3726 12.9688 15.4551 12.9755C15.5377 12.9823 15.6203 12.9624 15.6935 12.918L18.8419 11.0169L21.9904 12.918C22.0764 12.9705 22.1762 12.988 22.2719 12.9689C22.5131 12.9212 22.6753 12.6584 22.6337 12.3814L22.032 8.3548L24.5788 5.50321C24.6481 5.4252 24.6939 5.3233 24.7078 5.21184C24.7452 4.93321 24.576 4.67528 24.3334 4.63388Z" fill="#F3B004"/>
<path d="M37.0079 4.63388L33.7586 4.04637L32.3061 0.382778C32.2665 0.282471 32.2012 0.20127 32.1206 0.151913C31.9184 0.0277233 31.6727 0.131215 31.5716 0.382778L30.1191 4.04637L26.8698 4.63388C26.7802 4.64981 26.6983 4.70235 26.6356 4.78196C26.5598 4.8789 26.518 5.00932 26.5194 5.14456C26.5209 5.2798 26.5654 5.4088 26.6433 5.50321L28.9942 8.3548L28.4387 12.3814C28.4257 12.4751 28.4341 12.5714 28.4628 12.6595C28.4915 12.7476 28.5395 12.8239 28.6014 12.8797C28.6632 12.9356 28.7363 12.9688 28.8126 12.9755C28.8888 12.9823 28.965 12.9624 29.0325 12.918L31.9388 11.0169L34.8451 12.918C34.9245 12.9705 35.0166 12.988 35.1049 12.9689C35.3276 12.9212 35.4773 12.6584 35.4389 12.3814L34.8835 8.3548L37.2344 5.50321C37.2984 5.4252 37.3406 5.3233 37.3534 5.21184C37.388 4.93321 37.2319 4.67528 37.0079 4.63388Z" fill="#F3B004"/>
<path d="M46.7775 4.14503L46.8313 4.27048L46.966 4.29296L50.4852 4.88032C50.4853 4.88034 50.4854 4.88035 50.4854 4.88037C50.5698 4.89497 50.6769 5.0063 50.6538 5.17856L50.6535 5.18098C50.6455 5.24457 50.6199 5.29858 50.5859 5.33692C50.5859 5.337 50.5858 5.33708 50.5857 5.33716L48.0393 8.18827L47.9612 8.27574L47.9786 8.39174L48.5802 12.4184L48.5803 12.4185C48.6063 12.592 48.5007 12.7071 48.4171 12.7237L48.4167 12.7238C48.3834 12.7304 48.3475 12.7248 48.3146 12.7047L48.3134 12.704L45.165 10.8029L45.0357 10.7249L44.9065 10.8029L41.758 12.704L41.7576 12.7042C41.7278 12.7222 41.6976 12.7287 41.6693 12.7264C41.6409 12.724 41.6099 12.7124 41.5803 12.6877C41.5502 12.6627 41.523 12.625 41.5057 12.5762C41.4884 12.5273 41.4831 12.4724 41.4912 12.4186L41.4912 12.4184L42.0929 8.39174L42.1102 8.27574L42.0321 8.18827L39.4853 5.33668L39.4853 5.33666C39.4441 5.29057 39.4156 5.22097 39.4147 5.14168C39.4138 5.06258 39.4406 4.99181 39.481 4.9439C39.5144 4.90492 39.5517 4.886 39.5847 4.88059L39.5854 4.88047L43.1054 4.29296L43.2401 4.27048L43.294 4.14503L44.8671 0.482574C44.8671 0.482397 44.8672 0.482219 44.8673 0.482042C44.9274 0.344581 45.0399 0.330059 45.1093 0.369392L45.1096 0.369565C45.145 0.389561 45.1804 0.426602 45.2038 0.481237L45.2039 0.48144L46.7775 4.14503Z" fill="white" stroke="#969696" stroke-width="0.5"/>
<path d="M59.4229 4.14503L59.4767 4.27048L59.6114 4.29296L63.1306 4.88032C63.1306 4.88034 63.1307 4.88035 63.1308 4.88037C63.2152 4.89497 63.3223 5.0063 63.2991 5.17856L63.2988 5.18098C63.2909 5.24457 63.2653 5.29858 63.2313 5.33692C63.2312 5.337 63.2312 5.33708 63.2311 5.33716L60.6847 8.18827L60.6066 8.27574L60.6239 8.39174L61.2256 12.4184L61.2257 12.4185C61.2517 12.592 61.1461 12.7071 61.0625 12.7237L61.0621 12.7238C61.0287 12.7304 60.9929 12.7248 60.96 12.7047L60.9588 12.704L57.8103 10.8029L57.6811 10.7249L57.5519 10.8029L54.4034 12.704L54.403 12.7042C54.3732 12.7222 54.3429 12.7287 54.3147 12.7264C54.2863 12.724 54.2553 12.7124 54.2256 12.6877C54.1956 12.6627 54.1684 12.625 54.1511 12.5762C54.1338 12.5273 54.1285 12.4724 54.1366 12.4186L54.1366 12.4184L54.7383 8.39174L54.7556 8.27574L54.6775 8.18827L52.1307 5.33668L52.1307 5.33666C52.0895 5.29057 52.061 5.22097 52.0601 5.14168C52.0592 5.06258 52.086 4.99181 52.1264 4.9439C52.1598 4.90492 52.1971 4.886 52.2301 4.88059L52.2308 4.88047L55.7508 4.29296L55.8855 4.27048L55.9394 4.14503L57.5124 0.482574C57.5125 0.482397 57.5126 0.482219 57.5127 0.482042C57.5728 0.344581 57.6853 0.330059 57.7547 0.369392L57.755 0.369565C57.7904 0.389561 57.8258 0.426602 57.8492 0.481237L57.8493 0.48144L59.4229 4.14503Z" fill="white" stroke="#969696" stroke-width="0.5"/>
</svg>
