<svg width="70" height="14" viewBox="0 0 70 14" fill="none" xmlns="http://www.w3.org/2000/svg">
<path d="M12.1928 4.93249L8.41552 4.29342L6.727 0.308287C6.68088 0.199176 6.60501 0.110849 6.51128 0.0571595C6.27623 -0.0779296 5.99059 0.0346447 5.87306 0.308287L4.18454 4.29342L0.407305 4.93249C0.303167 4.94981 0.207955 5.00696 0.135059 5.09356C0.0469307 5.19901 -0.00163186 5.34088 4.18723e-05 5.48799C0.0017156 5.6351 0.0534886 5.77542 0.143985 5.87812L2.87686 8.97997L2.23121 13.36C2.21607 13.4619 2.22575 13.5667 2.25917 13.6625C2.29258 13.7583 2.34838 13.8413 2.42025 13.902C2.49211 13.9628 2.57717 13.9989 2.66576 14.0062C2.75436 14.0136 2.84295 13.9919 2.92149 13.9436L6.30003 11.8757L9.67857 13.9436C9.7708 14.0008 9.87792 14.0198 9.98057 13.9991C10.2394 13.9471 10.4135 13.6613 10.3689 13.36L9.7232 8.97997L12.4561 5.87812C12.5305 5.79325 12.5796 5.68241 12.5944 5.56118C12.6346 5.25809 12.4531 4.97752 12.1928 4.93249Z" fill="#F3B004"/>
<path d="M26.7312 4.93249L22.954 4.29342L21.2655 0.308287C21.2194 0.199176 21.1435 0.110849 21.0498 0.0571595C20.8147 -0.0779296 20.5291 0.0346447 20.4115 0.308287L18.723 4.29342L14.9458 4.93249C14.8416 4.94981 14.7464 5.00696 14.6735 5.09356C14.5854 5.19901 14.5369 5.34088 14.5385 5.48799C14.5402 5.6351 14.592 5.77542 14.6825 5.87812L17.4153 8.97997L16.7697 13.36C16.7546 13.4619 16.7642 13.5667 16.7976 13.6625C16.8311 13.7583 16.8869 13.8413 16.9587 13.902C17.0306 13.9628 17.1156 13.9989 17.2042 14.0062C17.2928 14.0136 17.3814 13.9919 17.46 13.9436L20.8385 11.8757L24.217 13.9436C24.3093 14.0008 24.4164 14.0198 24.519 13.9991C24.7779 13.9471 24.952 13.6613 24.9073 13.36L24.2617 8.97997L26.9946 5.87812C27.0689 5.79325 27.118 5.68241 27.1329 5.56118C27.1731 5.25809 26.9916 4.97752 26.7312 4.93249Z" fill="#F3B004"/>
<path d="M40.3318 4.93249L36.8451 4.29342L35.2864 0.308287C35.2439 0.199176 35.1738 0.110849 35.0873 0.0571595C34.8703 -0.0779296 34.6067 0.0346447 34.4982 0.308287L32.9396 4.29342L29.4529 4.93249C29.3568 4.94981 29.2689 5.00696 29.2016 5.09356C29.1202 5.19901 29.0754 5.34088 29.0769 5.48799C29.0785 5.6351 29.1263 5.77542 29.2098 5.87812L31.7325 8.97997L31.1365 13.36C31.1225 13.4619 31.1314 13.5667 31.1623 13.6625C31.1931 13.7583 31.2446 13.8413 31.311 13.902C31.3773 13.9628 31.4558 13.9989 31.5376 14.0062C31.6194 14.0136 31.7012 13.9919 31.7737 13.9436L34.8923 11.8757L38.011 13.9436C38.0961 14.0008 38.195 14.0198 38.2897 13.9991C38.5287 13.9471 38.6894 13.6613 38.6482 13.36L38.0522 8.97997L40.5748 5.87812C40.6435 5.79325 40.6888 5.68241 40.7025 5.56118C40.7396 5.25809 40.5721 4.97752 40.3318 4.93249Z" fill="#F3B004"/>
<path d="M44.8774 13.36L45.523 8.97997L42.7901 5.87812C42.6996 5.77542 42.6479 5.6351 42.6462 5.48799C42.6445 5.34088 42.6931 5.19901 42.7812 5.09356M44.8774 13.36C44.8622 13.4619 44.8719 13.5667 44.9053 13.6625C44.9387 13.7583 44.9945 13.8413 45.0664 13.902C45.1383 13.9628 45.2233 13.9989 45.3119 14.0062M44.8774 13.36L44.8774 13.36L44.8774 13.36ZM42.7812 5.09356L42.9725 5.25456C42.9726 5.25444 42.9727 5.25432 42.9728 5.2542M42.7812 5.09356L42.973 5.25388C42.9729 5.25398 42.9729 5.25409 42.9728 5.2542M42.7812 5.09356C42.8541 5.00696 42.9493 4.94981 43.0535 4.93249L46.8307 4.29342L48.5192 0.308287C48.6367 0.0346447 48.9224 -0.0779296 49.1574 0.0571595L54.9144 5.71312C54.9538 5.66805 54.9833 5.60482 54.9924 5.53073L54.9927 5.52833C55.0192 5.32844 54.8967 5.19644 54.7966 5.17889L54.7972 5.17899L54.8389 4.93249L54.7963 5.17883L51.02 4.53991L50.8849 4.51706L50.8315 4.39095L49.143 0.40582L49.1429 0.405618C49.1159 0.341742 49.0748 0.297927 49.0332 0.274088L49.0329 0.273913C48.9501 0.22637 48.8185 0.245544 48.7491 0.406466C48.7491 0.406626 48.749 0.406786 48.7489 0.406945L47.0609 4.39095L47.0074 4.51706L46.8724 4.53991L43.0952 5.17899L43.0945 5.17911C43.0552 5.18563 43.0115 5.20835 42.9728 5.2542M42.9728 5.2542C42.9258 5.31055 42.8951 5.39324 42.8962 5.48514C42.8972 5.57723 42.9299 5.65857 42.9777 5.71283L42.9777 5.71285L45.7106 8.8147L45.7873 8.90171L45.7703 9.01643L45.1247 13.3964L45.1246 13.3967C45.1154 13.4592 45.1215 13.5231 45.1414 13.5801C45.1613 13.6371 45.1927 13.6815 45.2278 13.7111C45.2624 13.7404 45.299 13.7543 45.3326 13.7571L45.3119 14.0062M45.3119 14.0062L45.3326 13.7571C45.366 13.7599 45.4018 13.7521 45.4367 13.7306L45.4371 13.7304L48.8157 11.6625L48.9462 11.5826L49.0767 11.6625L52.4552 13.7304L52.4564 13.7311C52.4953 13.7552 52.5377 13.762 52.5771 13.754L52.5775 13.7539C52.6769 13.734 52.7975 13.5976 52.7677 13.3966L52.7677 13.3964L52.122 9.01643L52.1051 8.90171L52.1818 8.8147L54.9142 5.71333L45.5676 13.9436C45.4891 13.9919 45.4005 14.0136 45.3119 14.0062Z" fill="white" stroke="#969696" stroke-width="0.5"/>
<path d="M59.4159 13.36L60.0615 8.97997L57.3286 5.87812C57.2382 5.77542 57.1864 5.6351 57.1847 5.48799C57.183 5.34088 57.2316 5.19901 57.3197 5.09356M59.4159 13.36C59.4007 13.4619 59.4104 13.5667 59.4438 13.6625C59.4772 13.7583 59.533 13.8413 59.6049 13.902C59.6768 13.9628 59.7618 13.9989 59.8504 14.0062M59.4159 13.36L59.4159 13.36L59.4159 13.36ZM57.3197 5.09356L57.511 5.25456C57.5111 5.25444 57.5112 5.25432 57.5113 5.2542M57.3197 5.09356L57.5115 5.25388C57.5115 5.25398 57.5114 5.25409 57.5113 5.2542M57.3197 5.09356C57.3926 5.00696 57.4878 4.94981 57.592 4.93249L61.3692 4.29342L63.0577 0.308287C63.1753 0.0346447 63.4609 -0.0779296 63.6959 0.0571595L69.4529 5.71312C69.4923 5.66805 69.5219 5.60482 69.531 5.53073L69.5312 5.52833C69.5577 5.32844 69.4352 5.19644 69.3351 5.17889L69.3357 5.17899L69.3774 4.93249L69.3348 5.17883L65.5585 4.53991L65.4234 4.51706L65.37 4.39095L63.6815 0.40582L63.6814 0.405618C63.6544 0.341742 63.6133 0.297927 63.5717 0.274088L63.5714 0.273913C63.4886 0.22637 63.357 0.245544 63.2876 0.406466C63.2876 0.406626 63.2875 0.406786 63.2874 0.406945L61.5994 4.39095L61.546 4.51706L61.4109 4.53991L57.6337 5.17899L57.633 5.17911C57.5938 5.18563 57.55 5.20835 57.5113 5.2542M57.5113 5.2542C57.4643 5.31055 57.4336 5.39324 57.4347 5.48514C57.4357 5.57723 57.4684 5.65857 57.5162 5.71283L57.5162 5.71285L60.2491 8.8147L60.3258 8.90171L60.3089 9.01643L59.6632 13.3964L59.6632 13.3967C59.6539 13.4592 59.66 13.5231 59.6799 13.5801C59.6998 13.6371 59.7313 13.6815 59.7663 13.7111C59.8009 13.7404 59.8375 13.7543 59.8711 13.7571L59.8504 14.0062M59.8504 14.0062L59.8711 13.7571C59.9045 13.7599 59.9403 13.7521 59.9752 13.7306L59.9756 13.7304L63.3542 11.6625L63.4847 11.5826L63.6152 11.6625L66.9937 13.7304L66.9949 13.7311C67.0338 13.7552 67.0762 13.762 67.1156 13.754L67.116 13.7539C67.2155 13.734 67.336 13.5976 67.3062 13.3966L67.3062 13.3964L66.6605 9.01643L66.6436 8.90171L66.7203 8.8147L69.4527 5.71333L60.1062 13.9436C60.0276 13.9919 59.939 14.0136 59.8504 14.0062Z" fill="white" stroke="#969696" stroke-width="0.5"/>
</svg>
