<svg width="17" height="17" viewBox="0 0 17 17" fill="none" xmlns="http://www.w3.org/2000/svg">
<g clip-path="url(#clip0_5_220)">
<path d="M2.72424 2.72681V4.62413" stroke="black" stroke-linecap="round" stroke-linejoin="round"/>
<path d="M8.2644 2.72681V4.62413" stroke="black" stroke-linecap="round" stroke-linejoin="round"/>
<path d="M5.49426 1.31448V3.21181" stroke="black" stroke-linecap="round" stroke-linejoin="round"/>
<path d="M15.1349 6.74778C15.7753 6.74778 16.2945 6.22859 16.2945 5.58814C16.2945 4.94769 15.7753 4.4285 15.1349 4.4285C14.4944 4.4285 13.9752 4.94769 13.9752 5.58814C13.9752 6.22859 14.4944 6.74778 15.1349 6.74778Z" stroke="black" stroke-linecap="round"/>
<path d="M13.1646 10.5362L13.422 10.6489C15.218 11.5002 15.7152 12.5989 15.7152 14.1108V14.4712C15.7152 15.1419 15.1716 15.6855 14.5009 15.6855H1.99134C1.59474 15.6855 1.22103 15.4906 1.06914 15.1243C0.732135 14.3116 0.341539 12.6792 1.35807 10.649C2.82699 7.71519 6.44235 7.07087 8.75708 8.28565L8.86735 8.34124" stroke="black" stroke-linecap="round" stroke-linejoin="round"/>
<path d="M12.3352 12.1503C13.4614 10.9136 13.5198 9.13301 12.4658 8.17336C11.4119 7.21371 9.64458 7.43835 8.5185 8.6751C7.49621 9.79787 7.35381 11.3688 8.12479 12.3669C8.20308 12.4682 8.29077 12.5636 8.38792 12.652" stroke="black" stroke-linecap="round"/>
<path d="M14.3358 6.43132L12.533 8.23422" stroke="black" stroke-linecap="round" stroke-linejoin="round"/>
</g>
<defs>
<clipPath id="clip0_5_220">
<rect width="17" height="17" fill="white"/>
</clipPath>
</defs>
</svg>
