<svg width="30" height="30" viewBox="0 0 30 30" fill="none" xmlns="http://www.w3.org/2000/svg">
<path d="M2.61008 20.972L8.02803 26.39C8.84148 27.2033 10.1603 27.2033 10.9738 26.39L22 15.3637L13.6364 7L2.61008 18.0263C1.79664 18.8397 1.79664 20.1584 2.61008 20.972Z" fill="#BFAD7D" stroke="black" stroke-width="2" stroke-linecap="round" stroke-linejoin="round"/>
<path d="M4.15728 18.4417L14.5292 21.1582C15.9566 21.5319 17.2579 20.2297 16.8832 18.8027L14.0366 7.96289" fill="#BFAD7D"/>
<path d="M4.15728 18.4417L14.5292 21.1582C15.9566 21.5319 17.2579 20.2297 16.8832 18.8027L14.0366 7.96289" stroke="black" stroke-width="2" stroke-linecap="round" stroke-linejoin="round"/>
<path d="M15.4572 7.72059C14.1129 6.37626 14.114 4.1978 15.4572 2.85457C16.5437 1.76809 18.18 1.55542 19.4759 2.22539L19.5828 2.11409C20.2825 1.41438 21.2081 1.0794 22.1238 1.10695C22.969 1.13449 23.8052 1.47058 24.4488 2.11409C25.0571 2.72235 25.3909 3.50359 25.4493 4.30026C26.2383 4.36198 27.0184 4.68374 27.6223 5.28758C28.9667 6.63191 28.9655 8.81038 27.6223 10.1536C27.5825 10.1933 27.5451 10.2263 27.5066 10.2649C28.1765 11.5607 27.9682 13.1927 26.8817 14.2791C25.5386 15.6223 23.3601 15.6235 22.0158 14.2791" fill="#BFAD7D"/>
<path d="M15.4572 7.72059C14.1129 6.37626 14.114 4.1978 15.4572 2.85457C16.5437 1.76809 18.18 1.55542 19.4759 2.22539L19.5828 2.11409C20.2825 1.41438 21.2081 1.0794 22.1238 1.10695C22.969 1.13449 23.8052 1.47058 24.4488 2.11409C25.0571 2.72235 25.3909 3.50359 25.4493 4.30026C26.2383 4.36198 27.0184 4.68374 27.6223 5.28758C28.9667 6.63191 28.9655 8.81038 27.6223 10.1536C27.5825 10.1933 27.5451 10.2263 27.5066 10.2649C28.1765 11.5607 27.9682 13.1927 26.8817 14.2791C25.5386 15.6223 23.3601 15.6235 22.0158 14.2791" stroke="black" stroke-width="2" stroke-linejoin="round"/>
<path d="M15.822 8.06083C16.0565 7.69233 16.5169 7.09401 16.877 6.80587C17.5368 6.27796 18.3103 5.98833 19.0936 5.92544C20.3969 5.82079 21.7273 6.34397 22.6059 7.44176C24.0122 9.19932 23.7275 11.7642 21.9699 13.1705L21.3968 13.6281" fill="#BFAD7D"/>
<path d="M15.822 8.06083C16.0565 7.69233 16.5169 7.09401 16.877 6.80587C17.5368 6.27796 18.3103 5.98833 19.0936 5.92544C20.3969 5.82079 21.7273 6.34397 22.6059 7.44176C24.0122 9.19932 23.7275 11.7642 21.9699 13.1705L21.3968 13.6281" stroke="black" stroke-width="2" stroke-linecap="round"/>
</svg>
