<svg width="17" height="17" viewBox="0 0 17 17" fill="none" xmlns="http://www.w3.org/2000/svg">
<g clip-path="url(#clip0_4_289)">
<path d="M2.72412 2.72681V4.62413" stroke="black" stroke-linecap="round" stroke-linejoin="round"/>
<path d="M8.26431 2.72681V4.62413" stroke="black" stroke-linecap="round" stroke-linejoin="round"/>
<path d="M5.49423 1.31448V3.21181" stroke="black" stroke-linecap="round" stroke-linejoin="round"/>
<path d="M15.1349 6.74778C15.7753 6.74778 16.2945 6.22859 16.2945 5.58814C16.2945 4.94769 15.7753 4.4285 15.1349 4.4285C14.4944 4.4285 13.9752 4.94769 13.9752 5.58814C13.9752 6.22859 14.4944 6.74778 15.1349 6.74778Z" stroke="black" stroke-linecap="round"/>
<path d="M13.1645 10.5362L13.422 10.6489C15.2179 11.5002 15.7152 12.5989 15.7152 14.1108V14.4712C15.7152 15.1419 15.1715 15.6855 14.5009 15.6855H1.99127C1.59468 15.6855 1.22097 15.4906 1.06907 15.1243C0.732073 14.3116 0.341478 12.6792 1.35801 10.649C2.82693 7.71519 6.44229 7.07087 8.75702 8.28565L8.86729 8.34124" stroke="black" stroke-linecap="round" stroke-linejoin="round"/>
<path d="M12.3352 12.1503C13.4613 10.9136 13.5197 9.13301 12.4657 8.17336C11.4118 7.21371 9.64452 7.43835 8.51844 8.6751C7.49615 9.79787 7.35375 11.3688 8.12473 12.3669C8.20302 12.4682 8.29071 12.5636 8.38786 12.652" stroke="black" stroke-linecap="round"/>
<path d="M14.3357 6.43132L12.5329 8.23422" stroke="black" stroke-linecap="round" stroke-linejoin="round"/>
</g>
<defs>
<clipPath id="clip0_4_289">
<rect width="17" height="17" fill="white"/>
</clipPath>
</defs>
</svg>
