<svg width="27" height="27" viewBox="0 0 27 27" fill="none" xmlns="http://www.w3.org/2000/svg">
<g clip-path="url(#clip0_3_198)">
<path d="M13.5 26.0357C20.4233 26.0357 26.0357 20.4233 26.0357 13.5C26.0357 6.57672 20.4233 0.964285 13.5 0.964285C6.57672 0.964285 0.964287 6.57672 0.964287 13.5C0.964287 20.4233 6.57672 26.0357 13.5 26.0357Z" fill="#DA7AD0" stroke="black" stroke-width="2" stroke-linecap="round" stroke-linejoin="round"/>
<path d="M13.5 17.3571C15.6302 17.3571 17.3571 15.6302 17.3571 13.5C17.3571 11.3698 15.6302 9.64286 13.5 9.64286C11.3698 9.64286 9.64286 11.3698 9.64286 13.5C9.64286 15.6302 11.3698 17.3571 13.5 17.3571Z" fill="#D9D9D9" stroke="black" stroke-width="2" stroke-linecap="round" stroke-linejoin="round"/>
<path d="M22.1786 12.5357L21.2143 14.4643" stroke="black" stroke-width="2" stroke-linecap="round" stroke-linejoin="round"/>
<path d="M5.78571 17.3571L7.71428 19.2857" stroke="black" stroke-width="2" stroke-linecap="round" stroke-linejoin="round"/>
<path d="M15.4286 4.82143L17.3571 6.75" stroke="black" stroke-width="2" stroke-linecap="round" stroke-linejoin="round"/>
<path d="M6.75 9.16071C6.48373 9.16071 6.26786 8.94485 6.26786 8.67857C6.26786 8.41229 6.48373 8.19643 6.75 8.19643" stroke="black" stroke-width="2"/>
<path d="M6.75 9.16071C7.01628 9.16071 7.23215 8.94485 7.23215 8.67857C7.23215 8.41229 7.01628 8.19643 6.75 8.19643" stroke="black" stroke-width="2"/>
<path d="M16.3929 21.6964C16.1266 21.6964 15.9107 21.4806 15.9107 21.2143C15.9107 20.948 16.1266 20.7321 16.3929 20.7321" stroke="black" stroke-width="2"/>
<path d="M16.3929 21.6964C16.6591 21.6964 16.875 21.4806 16.875 21.2143C16.875 20.948 16.6591 20.7321 16.3929 20.7321" stroke="black" stroke-width="2"/>
</g>
<defs>
<clipPath id="clip0_3_198">
<rect width="27" height="27" fill="white"/>
</clipPath>
</defs>
</svg>
