<svg width="18" height="17" viewBox="0 0 18 17" fill="none" xmlns="http://www.w3.org/2000/svg">
<g clip-path="url(#clip0_5_43)">
<path d="M10.8215 4.25V3.03571C10.8215 2.71366 10.6935 2.40481 10.4658 2.17708C10.2381 1.94936 9.92922 1.82143 9.60717 1.82143H8.39288" stroke="black" stroke-linecap="round" stroke-linejoin="round"/>
<path d="M5.35715 12.75H2.32143C1.99938 12.75 1.69053 12.622 1.4628 12.3943C1.23508 12.1667 1.10715 11.8578 1.10715 11.5357V3.03571C1.10715 2.71366 1.23508 2.40481 1.4628 2.17708C1.69053 1.94936 1.99938 1.82143 2.32143 1.82143H3.53572" stroke="black" stroke-linecap="round" stroke-linejoin="round"/>
<path d="M15.6786 6.67857H9.60717C8.93654 6.67857 8.39288 7.22223 8.39288 7.89286V15.1786C8.39288 15.8492 8.93654 16.3929 9.60717 16.3929H15.6786C16.3492 16.3929 16.8929 15.8492 16.8929 15.1786V7.89286C16.8929 7.22223 16.3492 6.67857 15.6786 6.67857Z" stroke="black" stroke-linecap="round" stroke-linejoin="round"/>
<path d="M8.69643 0.607147H3.23215L3.73 2.57429C3.76034 2.70595 3.83457 2.82338 3.9405 2.90724C4.04644 2.99109 4.17775 3.03641 4.31286 3.03572H7.61572C7.75083 3.03641 7.88214 2.99109 7.98808 2.90724C8.09401 2.82338 8.16824 2.70595 8.19858 2.57429L8.69643 0.607147Z" stroke="black" stroke-linecap="round" stroke-linejoin="round"/>
<path d="M10.8214 10.3214H14.4643" stroke="black" stroke-linecap="round" stroke-linejoin="round"/>
<path d="M10.8214 12.75H14.4643" stroke="black" stroke-linecap="round" stroke-linejoin="round"/>
</g>
<defs>
<clipPath id="clip0_5_43">
<rect width="17" height="17" fill="white" transform="translate(0.5)"/>
</clipPath>
</defs>
</svg>
