<svg width="191" height="186" viewBox="0 0 191 186" fill="none" xmlns="http://www.w3.org/2000/svg">
<g filter="url(#filter0_f_5_68)">
<path d="M86.6237 9.51581C91.906 5.63823 99.094 5.63823 104.376 9.51581L178.565 63.9755C183.768 67.795 185.944 74.5148 183.968 80.6595L155.568 168.971C153.574 175.174 147.804 179.379 141.289 179.379H49.7115C43.1964 179.379 37.4263 175.174 35.4317 168.971L7.03174 80.6595C5.05569 74.5148 7.23206 67.795 12.4352 63.9755L86.6237 9.51581Z" fill="#00B533" fill-opacity="0.2"/>
<path d="M88.399 11.9342C92.6248 8.83211 98.3752 8.83211 102.601 11.9342L176.789 66.3938C180.952 69.4494 182.693 74.8253 181.112 79.741L152.712 168.053C151.117 173.015 146.501 176.379 141.289 176.379H49.7115C44.4994 176.379 39.8833 173.015 38.2877 168.053L9.88769 79.741C8.30685 74.8253 10.0479 69.4494 14.2105 66.3938L88.399 11.9342Z" stroke="#00B533" stroke-width="6"/>
</g>
<defs>
<filter id="filter0_f_5_68" x="0.510516" y="0.807605" width="189.979" height="184.372" filterUnits="userSpaceOnUse" color-interpolation-filters="sRGB">
<feFlood flood-opacity="0" result="BackgroundImageFix"/>
<feBlend mode="normal" in="SourceGraphic" in2="BackgroundImageFix" result="shape"/>
<feGaussianBlur stdDeviation="2.9" result="effect1_foregroundBlur_5_68"/>
</filter>
</defs>
</svg>
